<?xml version="1.0" standalone="no"?>
<!DOCTYPE svg PUBLIC "-//W3C//DTD SVG 20010904//EN"
 "http://www.w3.org/TR/2001/REC-SVG-20010904/DTD/svg10.dtd">
<svg version="1.0" xmlns="http://www.w3.org/2000/svg"
 width="1334.000000pt" height="1334.000000pt" viewBox="0 0 1334.000000 1334.000000"
 preserveAspectRatio="xMidYMid meet">
<metadata>
Created by potrace 1.14, written by Peter Selinger 2001-2017
</metadata>
<g transform="translate(0.000000,1334.000000) scale(0.100000,-0.100000)"
fill="#000000" stroke="none">
<path d="M344 12054 c3 -9 6 -18 6 -20 0 -3 6 -2 13 2 6 4 9 4 5 -1 -4 -4 -2
-15 5 -23 9 -13 9 -14 0 -8 -7 4 -13 2 -13 -3 0 -6 7 -11 15 -11 8 0 15 -5 15
-11 0 -16 26 -39 36 -31 5 4 2 -1 -5 -10 -11 -15 -10 -17 8 -13 14 2 21 -1 21
-11 0 -10 5 -12 13 -8 7 5 6 0 -3 -11 -14 -17 -13 -18 2 -13 19 8 34 -18 15
-26 -7 -2 -4 -5 6 -5 22 -1 49 -26 39 -35 -3 -4 2 -4 12 0 14 5 17 4 12 -4 -4
-7 -1 -12 8 -12 9 0 16 -5 16 -11 0 -5 -4 -7 -10 -4 -5 3 -10 1 -10 -4 0 -6 9
-11 20 -11 13 0 28 -12 38 -30 12 -21 23 -28 37 -25 11 3 15 2 8 -1 -19 -8 7
-43 26 -36 14 5 14 4 1 -13 -14 -17 -13 -18 4 -12 14 6 17 4 12 -9 -6 -15 -4
-15 11 -3 14 12 16 12 8 0 -6 -11 -3 -13 14 -8 18 4 20 3 11 -8 -8 -10 -7 -14
2 -18 10 -4 10 -8 -2 -17 -12 -9 -10 -10 9 -5 19 6 23 4 18 -8 -4 -11 -2 -14
9 -10 8 3 14 -1 14 -10 0 -10 7 -15 18 -12 10 2 19 -2 19 -9 0 -7 -6 -13 -13
-13 -7 0 -10 5 -7 10 3 6 1 7 -5 3 -18 -11 -14 -26 7 -26 11 0 23 -5 27 -12 5
-7 3 -8 -6 -3 -9 6 -12 4 -8 -6 4 -10 -4 -14 -31 -14 -20 -1 -39 4 -43 10 -5
6 -12 5 -19 -5 -8 -12 -9 -9 -3 10 6 22 5 23 -10 11 -17 -15 -23 -2 -6 15 7 7
6 11 -4 11 -8 0 -13 -4 -10 -9 3 -4 0 -8 -5 -8 -6 0 -11 4 -11 8 0 13 -33 11
-50 -2 -13 -10 -13 -9 0 8 14 18 13 19 -2 13 -14 -5 -18 -1 -18 15 0 18 -4 20
-32 14 -31 -6 -31 -6 -13 10 11 8 15 13 8 10 -15 -8 -44 4 -37 15 3 5 -2 6
-10 3 -11 -4 -16 0 -16 14 0 24 -35 52 -65 52 -16 0 -17 2 -5 9 8 6 18 7 24 4
5 -3 6 -1 3 4 -4 6 -19 8 -34 5 -26 -5 -27 -4 -13 13 9 11 10 16 3 11 -7 -4
-13 -2 -13 3 0 6 -6 10 -12 9 -7 -2 -12 5 -12 15 1 11 -4 16 -15 15 -10 -2
-15 3 -14 16 1 13 -2 15 -10 7 -17 -17 -27 -13 -20 7 4 11 -1 9 -16 -8 -12
-14 -20 -20 -17 -13 4 6 -1 16 -10 21 -15 9 -15 10 4 16 12 4 22 12 22 18 0 6
-6 6 -15 -2 -11 -9 -18 -10 -28 -1 -8 6 -17 7 -22 3 -4 -4 -3 2 3 14 9 16 8
21 -3 21 -8 0 -11 -5 -8 -11 3 -6 0 -5 -7 1 -11 10 -17 10 -28 0 -13 -10 -14
-9 -2 9 9 15 20 20 34 16 12 -3 18 -2 14 2 -3 4 -20 8 -37 10 -17 1 -34 6 -38
11 -4 4 -2 5 5 1 6 -4 12 -2 12 3 0 6 -7 11 -16 11 -8 0 -13 4 -10 8 3 5 -1 9
-9 10 -54 6 -81 -2 -77 -23 2 -12 -1 -15 -10 -9 -7 4 -1 -4 15 -19 27 -26 37
-44 17 -32 -5 3 -10 1 -10 -4 0 -6 7 -11 15 -11 9 0 12 -6 8 -17 -4 -11 -3
-14 5 -9 8 5 12 0 12 -13 0 -12 6 -21 13 -21 7 0 18 -9 25 -21 11 -17 11 -20
0 -14 -7 3 -5 0 5 -8 9 -8 17 -22 17 -32 0 -11 5 -15 15 -12 8 4 17 1 21 -5 4
-7 3 -8 -4 -4 -7 4 -12 1 -12 -9 0 -9 4 -13 10 -10 6 3 10 1 10 -5 0 -6 5 -8
13 -4 8 6 8 3 -1 -9 -12 -14 -11 -16 7 -12 13 2 21 -1 20 -8 -3 -17 22 -67 31
-62 5 3 11 -6 14 -20 4 -14 11 -25 17 -25 6 0 7 5 3 12 -4 7 -3 8 4 4 6 -4 9
-13 6 -20 -6 -15 50 -79 61 -68 3 4 6 2 5 -3 -6 -28 2 -45 20 -45 14 0 20 -7
20 -21 0 -12 8 -23 18 -26 10 -2 22 -14 27 -26 6 -12 19 -24 30 -26 11 -2 23
-8 26 -13 3 -5 15 -10 26 -11 12 0 19 -6 16 -14 -3 -8 2 -11 16 -8 12 2 19 0
16 -6 -4 -5 1 -9 9 -9 9 0 16 -4 16 -10 0 -5 7 -10 16 -10 9 0 25 -10 36 -22
11 -13 17 -16 13 -8 -4 9 -1 8 8 -3 11 -14 16 -15 20 -5 3 8 6 6 6 -5 1 -10 5
-16 10 -12 5 3 16 -2 24 -10 12 -11 17 -12 20 -2 4 9 6 9 6 0 1 -7 7 -13 15
-13 8 0 27 -12 43 -28 26 -23 38 -27 84 -26 59 2 79 -3 79 -18 0 -6 -7 -5 -17
2 -10 7 -6 1 10 -13 15 -14 27 -30 27 -34 0 -14 69 -42 76 -31 4 5 11 5 18 -1
9 -7 17 -7 26 2 10 9 11 9 6 0 -6 -12 18 -19 47 -14 4 0 7 -3 7 -7 0 -5 6 -9
13 -9 20 -1 42 -8 48 -15 3 -5 17 -9 32 -10 15 -1 27 -6 27 -11 0 -4 4 -6 9
-2 5 3 16 -2 24 -10 9 -8 25 -15 37 -15 13 0 19 -4 14 -12 -4 -6 -3 -8 3 -5
10 6 103 -39 114 -55 3 -5 10 -10 15 -10 16 -1 44 -25 37 -31 -3 -4 -1 -7 6
-7 7 0 21 -10 30 -22 10 -11 29 -22 42 -23 14 -2 23 -8 21 -15 -2 -11 0 -11
11 -1 12 9 16 8 20 -3 6 -15 23 -16 46 -2 11 7 12 6 6 -5 -8 -12 -6 -12 8 0 9
7 14 17 11 22 -3 5 0 9 6 9 6 0 8 5 4 12 -4 7 -3 8 5 4 6 -4 9 -11 6 -16 -3
-5 9 -22 26 -39 17 -17 27 -31 23 -31 -4 0 1 -10 12 -22 13 -14 14 -19 4 -14
-9 5 -8 2 2 -7 10 -8 15 -17 11 -20 -3 -4 2 -7 11 -7 12 0 16 -5 12 -16 -3 -8
-2 -12 4 -9 6 3 13 -2 17 -12 9 -24 29 -44 37 -36 3 4 6 1 6 -6 0 -15 25 -41
38 -41 6 0 13 -7 16 -16 5 -14 9 -14 23 -3 11 9 14 10 10 2 -6 -9 3 -11 35 -9
24 2 43 5 43 6 0 2 18 5 80 15 22 4 44 11 49 15 5 5 15 6 22 3 8 -3 14 1 14 8
0 11 3 11 10 -1 5 -8 10 -10 10 -4 0 15 101 10 131 -7 13 -7 28 -12 32 -11 5
1 6 -1 4 -5 -5 -8 10 -25 28 -34 6 -2 9 -7 7 -12 -1 -4 1 -6 5 -6 18 3 36 -1
30 -7 -9 -10 30 -47 42 -39 7 4 10 1 9 -7 -2 -7 3 -12 10 -10 6 1 12 -4 12
-12 0 -7 11 -21 24 -32 14 -10 23 -21 20 -26 -3 -4 2 -8 11 -8 23 0 49 -27 32
-33 -6 -3 -2 -6 11 -6 13 -1 22 -7 22 -17 0 -8 5 -12 10 -9 6 3 10 0 10 -8 0
-7 15 -26 34 -42 19 -16 33 -32 30 -37 -3 -4 9 -16 25 -26 23 -14 28 -21 19
-30 -9 -9 -9 -12 3 -13 7 -1 18 -1 22 0 5 1 6 -3 2 -9 -3 -5 -1 -10 5 -10 7 0
10 -6 7 -14 -3 -7 3 -20 14 -29 10 -9 19 -24 19 -32 0 -9 4 -13 10 -10 5 3 10
-3 10 -14 0 -12 5 -21 12 -21 6 0 9 -3 5 -6 -3 -4 3 -24 14 -46 11 -21 17 -43
14 -48 -3 -6 0 -10 7 -10 9 0 9 -3 -2 -10 -12 -8 -12 -10 -1 -10 8 0 11 -3 8
-6 -3 -4 -1 -16 5 -27 9 -17 8 -19 -8 -13 -16 6 -16 5 -3 -11 9 -10 15 -37 14
-64 0 -29 4 -46 13 -47 24 -4 37 -3 67 3 17 3 38 6 48 6 10 0 15 5 11 11 -5 7
-1 9 9 5 9 -3 19 -2 22 4 4 5 11 7 16 4 5 -4 11 0 14 7 3 8 15 15 27 15 12 1
24 7 28 14 4 6 13 8 19 5 6 -4 11 -3 11 3 0 6 7 8 15 5 9 -4 15 -1 15 7 0 8 6
5 16 -7 8 -10 13 -14 10 -7 -4 6 -1 15 6 19 7 4 10 4 6 -1 -4 -4 -3 -16 3 -26
7 -14 6 -19 -3 -19 -9 0 -9 -3 2 -10 12 -8 13 -11 1 -19 -7 -5 -9 -11 -4 -14
5 -4 8 -20 5 -38 -3 -20 0 -34 9 -40 9 -6 10 -9 2 -9 -15 0 -14 -60 1 -60 6 0
4 -5 -4 -10 -8 -5 -10 -10 -5 -10 6 0 10 -16 11 -36 0 -20 6 -39 13 -44 11 -6
11 -9 0 -13 -11 -4 -9 -10 6 -23 15 -12 16 -15 3 -11 -21 7 -18 -15 8 -45 19
-22 19 -22 0 -8 -16 12 -18 12 -11 1 4 -8 9 -26 11 -40 1 -14 3 -28 4 -31 1
-3 3 -14 4 -25 0 -11 7 -19 14 -17 8 1 11 -2 7 -8 -3 -6 -10 -8 -15 -5 -5 3
-12 0 -16 -6 -4 -8 -3 -9 4 -5 7 4 12 2 12 -4 0 -6 4 -9 8 -6 12 7 9 -38 -3
-46 -6 -5 -5 -8 3 -8 7 0 10 -4 7 -10 -3 -5 2 -10 12 -10 11 0 14 -3 7 -8 -9
-5 -8 -11 2 -20 8 -7 14 -10 14 -7 0 4 7 -1 16 -9 8 -9 12 -20 9 -26 -4 -6 -3
-10 2 -9 25 4 43 -2 37 -13 -5 -8 -2 -9 9 -5 11 4 17 1 17 -7 0 -7 12 -19 27
-27 15 -8 41 -26 57 -41 16 -16 35 -28 42 -28 8 0 14 -4 14 -10 0 -5 7 -10 15
-10 8 0 15 -4 15 -10 0 -5 9 -10 21 -10 11 0 17 -4 14 -10 -3 -5 -1 -11 4 -11
6 -1 17 -2 24 -3 6 -1 11 -7 10 -13 -2 -7 6 -10 17 -8 12 2 18 0 15 -6 -4 -5
-1 -9 5 -9 6 0 8 -5 4 -11 -4 -7 0 -9 14 -5 13 4 22 1 26 -9 3 -8 13 -15 21
-15 10 0 13 -5 9 -12 -5 -7 -3 -8 7 -2 8 4 24 7 37 5 12 -1 22 2 22 8 0 6 3
11 8 10 13 -2 52 13 52 20 0 8 60 45 77 47 6 1 9 -4 7 -11 -3 -7 0 -16 7 -21
8 -4 10 -3 5 4 -5 8 -1 10 10 5 16 -6 15 -8 -4 -16 -20 -9 -21 -11 -4 -24 16
-12 16 -13 -1 -7 -10 4 -17 3 -16 -2 4 -23 -2 -35 -13 -28 -9 5 -9 2 1 -9 12
-15 11 -17 -5 -17 -16 0 -17 -2 -4 -10 11 -7 11 -10 2 -10 -7 0 -11 -4 -7 -9
3 -5 -5 -17 -17 -26 l-23 -17 25 6 25 7 -25 -15 c-14 -9 -20 -16 -15 -16 6 0
3 -5 -5 -10 -10 -6 -11 -10 -2 -10 6 0 12 -5 12 -11 0 -5 -5 -7 -12 -3 -7 4
-8 3 -4 -4 10 -16 46 -15 42 1 -1 6 -1 9 2 4 5 -9 103 2 118 14 6 5 14 6 17 3
3 -3 12 -2 19 2 7 5 15 9 18 9 35 5 69 18 65 25 -3 4 4 6 15 3 11 -3 20 0 20
6 0 6 3 10 8 9 4 -1 17 3 30 10 30 17 89 24 97 12 4 -6 11 -7 17 -4 6 4 8 3 5
-3 -3 -5 -2 -25 2 -45 5 -23 5 -40 -2 -47 -7 -7 -6 -15 3 -26 7 -8 8 -15 3
-15 -7 0 -11 -96 -13 -257 -3 -350 -3 -372 -13 -366 -4 2 -5 -8 -2 -24 3 -15
9 -58 12 -95 5 -65 4 -68 -21 -79 -14 -7 -26 -16 -26 -21 0 -5 -4 -7 -10 -3
-5 3 -18 -3 -28 -13 -10 -10 -26 -18 -35 -16 -11 1 -15 -6 -15 -27 1 -17 5
-26 12 -22 6 3 8 3 4 -2 -4 -4 -2 -15 5 -24 11 -14 10 -14 -5 -2 -11 8 -18 9
-18 3 0 -6 4 -13 8 -16 5 -3 7 -19 6 -35 -1 -20 2 -29 9 -24 6 4 8 0 4 -9 -3
-9 0 -21 6 -28 9 -10 9 -11 0 -6 -7 4 -13 2 -13 -3 0 -6 4 -11 8 -11 4 0 9
-11 10 -26 1 -18 -2 -23 -11 -18 -8 5 -8 2 2 -9 7 -9 11 -28 9 -42 -3 -14 -1
-25 4 -25 5 0 6 -4 3 -10 -3 -5 -2 -10 4 -10 5 0 8 -9 6 -20 -2 -11 1 -20 7
-20 7 0 3 -7 -8 -15 -18 -14 -18 -14 4 -8 13 3 22 1 22 -6 0 -7 -4 -10 -8 -7
-4 2 -8 -4 -8 -14 0 -10 5 -16 10 -13 5 4 7 -3 4 -14 -3 -11 -1 -27 3 -36 7
-11 4 -19 -8 -27 -17 -11 -17 -11 1 -6 13 5 17 2 12 -9 -3 -8 0 -15 7 -15 9 0
9 -2 0 -8 -10 -6 -9 -13 1 -33 7 -13 11 -30 8 -37 -2 -6 2 -12 8 -12 9 0 10
-3 1 -13 -7 -9 -7 -17 -1 -23 6 -6 11 -22 12 -37 1 -15 6 -27 11 -27 5 0 3 -8
-4 -17 -8 -9 -9 -14 -3 -10 7 4 15 0 18 -9 4 -10 2 -13 -7 -9 -6 4 -4 0 6 -8
13 -11 15 -17 6 -23 -9 -5 -7 -11 6 -21 14 -9 15 -13 4 -13 -12 0 -12 -2 1
-10 8 -5 11 -10 6 -10 -5 0 -2 -7 5 -16 7 -9 12 -31 11 -48 -2 -22 0 -27 7
-17 6 10 8 0 6 -30 -1 -24 -8 -45 -13 -47 -6 -2 -8 -10 -5 -18 4 -12 -6 -18
-28 -16 -3 1 -6 -5 -6 -13 0 -8 5 -12 11 -8 6 3 -5 -9 -24 -27 -19 -18 -29
-29 -23 -26 9 5 11 2 7 -8 -3 -9 -10 -13 -15 -10 -5 3 -6 -2 -3 -10 3 -9 1
-16 -5 -16 -6 0 -11 -5 -11 -11 0 -5 5 -7 12 -3 7 5 8 3 2 -7 -4 -8 -9 -20
-10 -26 -3 -19 13 -25 19 -9 4 9 14 12 28 9 17 -5 20 -3 14 7 -6 10 -4 12 8 7
9 -3 23 1 32 9 11 12 15 12 15 2 1 -9 5 -7 14 5 7 9 21 17 30 17 10 0 14 4 11
10 -3 6 1 7 9 4 9 -3 16 -1 16 6 0 6 4 9 9 5 5 -3 13 0 16 6 4 5 13 8 21 5 8
-3 14 -1 14 5 0 6 7 8 16 5 8 -3 12 -2 9 4 -3 6 1 10 10 10 10 0 13 5 9 12 -5
7 -3 8 7 2 24 -15 38 -13 32 4 -4 9 -2 13 4 9 6 -4 18 0 26 8 19 18 31 20 22
3 -4 -7 1 -4 10 7 9 11 17 19 18 17 1 -2 10 0 20 4 15 5 16 9 5 15 -10 7 -9 9
4 9 11 0 15 7 13 25 -2 20 0 23 11 14 13 -11 16 -7 13 17 0 4 3 10 8 13 12 8
43 70 43 87 0 7 10 16 21 19 17 6 18 9 8 16 -11 6 -10 9 3 14 9 4 14 13 11 21
-3 8 5 18 21 25 22 10 24 15 14 28 -8 10 -5 9 9 -3 23 -19 22 -42 0 -30 -9 5
-9 4 -1 -5 15 -16 6 -53 -10 -44 -6 4 -5 -1 3 -10 12 -16 12 -17 -5 -10 -17 6
-17 5 -5 -10 9 -11 10 -17 2 -17 -6 0 -11 -9 -11 -21 0 -14 -5 -19 -14 -16
-15 6 -16 -9 -2 -31 4 -7 4 -12 -1 -11 -4 1 -17 1 -27 0 -20 -1 -20 -1 0 -17
10 -8 14 -13 8 -10 -17 8 -25 -19 -11 -33 9 -9 8 -10 -7 -5 -13 5 -17 4 -12
-4 4 -7 2 -12 -6 -12 -9 0 -9 -3 2 -10 10 -6 11 -10 3 -10 -7 0 -13 -5 -13
-11 0 -5 6 -7 13 -3 6 4 3 -2 -8 -13 -11 -11 -24 -18 -30 -15 -5 3 -4 -2 4
-11 9 -12 10 -17 2 -17 -7 0 -9 -4 -6 -10 3 -5 1 -10 -5 -10 -6 0 -8 -4 -5
-10 3 -5 2 -10 -3 -10 -6 0 -8 -9 -5 -20 3 -11 0 -20 -6 -20 -6 0 -11 -13 -11
-29 0 -17 -5 -33 -11 -37 -8 -4 -7 -9 2 -15 11 -7 11 -9 -2 -9 -9 0 -16 -6
-17 -12 -3 -30 -11 -64 -18 -82 -5 -14 -4 -17 4 -12 7 4 12 2 12 -3 0 -6 -8
-11 -17 -11 -14 0 -15 -2 -4 -9 11 -7 11 -9 0 -14 -11 -4 -11 -6 -1 -6 10 -1
10 -6 2 -21 -8 -15 -8 -20 2 -20 9 0 9 -3 -2 -10 -13 -9 -13 -11 0 -20 13 -9
13 -10 0 -10 -12 0 -12 -2 -1 -9 10 -6 10 -10 1 -16 -9 -6 -9 -10 1 -16 11 -7
11 -9 -1 -9 -13 0 -13 -1 0 -10 8 -5 10 -10 4 -10 -6 0 -10 -12 -8 -27 1 -16
3 -28 4 -28 1 0 3 -8 5 -17 2 -11 -3 -18 -13 -18 -15 -1 -15 -2 1 -11 14 -8
16 -14 6 -25 -7 -9 -8 -14 -1 -14 12 0 11 -18 -2 -39 -5 -8 -3 -16 5 -22 12
-7 12 -9 0 -9 -9 0 -12 -8 -9 -25 4 -17 1 -25 -8 -25 -8 0 -14 -5 -14 -11 0
-6 7 -9 15 -6 8 4 17 1 21 -5 4 -6 3 -8 -3 -5 -6 4 -17 -1 -24 -10 -12 -14
-12 -16 1 -8 12 7 13 6 3 -6 -10 -12 -10 -18 0 -28 9 -10 8 -11 -6 -5 -13 5
-16 2 -10 -12 5 -12 3 -15 -6 -9 -8 4 -6 -4 4 -19 14 -21 14 -25 3 -21 -9 4
-15 0 -15 -9 0 -8 4 -13 8 -10 4 2 6 -6 4 -18 -3 -13 -9 -24 -15 -26 -6 -2 -6
-11 1 -24 8 -15 8 -19 0 -14 -17 11 -13 -5 6 -26 13 -15 14 -19 3 -16 -8 2
-15 -1 -15 -7 -4 -39 -18 -74 -27 -69 -7 5 -9 0 -6 -14 4 -14 2 -19 -7 -16 -6
3 -18 -3 -26 -13 -13 -17 -13 -17 5 -3 18 14 18 14 6 -7 -8 -12 -18 -19 -24
-16 -5 4 -7 -1 -3 -10 4 -12 1 -17 -9 -17 -10 0 -14 -6 -10 -15 3 -8 0 -14 -7
-12 -7 1 -11 -4 -9 -10 1 -7 -3 -13 -9 -13 -5 0 -7 -4 -4 -10 3 -6 -2 -10 -12
-10 -14 0 -15 -2 -4 -9 9 -6 10 -10 2 -16 -9 -5 -9 -11 1 -23 10 -12 10 -14 1
-8 -8 4 -13 2 -13 -8 0 -8 6 -17 13 -19 9 -4 9 -6 0 -6 -20 -1 -15 -21 5 -21
16 -1 16 -1 -1 -11 -9 -6 -15 -15 -11 -20 4 -6 11 -6 20 2 17 14 18 5 3 -23
-6 -11 -7 -18 -2 -15 4 2 18 -11 31 -31 17 -25 18 -31 6 -21 -16 13 -16 12 -6
-7 6 -12 8 -25 4 -30 -4 -5 1 -2 11 6 10 7 17 9 16 4 -5 -15 12 -54 22 -54 6
0 7 -5 3 -12 -5 -8 -2 -9 9 -5 9 3 16 2 14 -3 -1 -5 7 -16 18 -25 11 -9 13
-14 5 -10 -8 4 -4 -2 10 -13 13 -11 28 -19 31 -16 4 2 5 -6 1 -18 -3 -14 -2
-19 6 -14 7 4 12 2 12 -4 0 -6 5 -8 12 -4 8 5 9 2 5 -10 -5 -11 2 -25 18 -40
18 -17 22 -25 13 -34 -9 -9 -9 -12 0 -12 7 0 12 -5 12 -11 0 -5 -5 -7 -10 -4
-13 8 -9 -17 4 -27 6 -4 5 -12 -2 -20 -9 -11 -9 -18 1 -28 6 -7 8 -10 2 -7 -5
3 -10 -5 -10 -18 0 -13 3 -22 6 -20 3 2 6 -27 6 -66 1 -38 -3 -71 -8 -74 -5
-3 -3 -15 4 -26 10 -16 9 -21 -3 -29 -8 -5 -10 -10 -4 -10 12 0 13 -45 1 -56
-4 -4 -2 -13 5 -21 6 -7 8 -16 5 -20 -4 -3 -2 -12 4 -19 7 -8 6 -14 -2 -20 -8
-5 -9 -3 -4 6 5 9 4 11 -4 6 -9 -6 -9 -11 -1 -21 8 -10 8 -15 -1 -20 -8 -6 -8
-9 1 -15 9 -6 9 -13 1 -29 -9 -16 -9 -21 1 -21 9 0 9 -3 0 -12 -9 -9 -8 -14 4
-23 14 -10 14 -14 3 -26 -16 -17 -24 -43 -11 -35 5 3 9 -8 9 -24 0 -16 -4 -27
-8 -24 -4 2 -11 -1 -15 -7 -4 -7 -3 -9 4 -5 6 3 13 2 16 -3 4 -5 1 -13 -5 -17
-8 -4 -7 -9 2 -15 12 -7 12 -10 0 -21 -11 -11 -13 -11 -6 1 6 10 4 12 -5 6
-10 -6 -10 -11 3 -20 17 -12 24 -31 9 -21 -4 2 -8 -4 -8 -15 0 -10 3 -19 6
-19 9 0 6 -38 -3 -46 -10 -10 -9 -26 1 -20 10 6 9 -25 -2 -42 -4 -7 -2 -12 5
-12 9 0 9 -3 0 -14 -8 -10 -9 -16 -1 -21 5 -3 10 -17 10 -31 0 -18 4 -23 12
-18 10 6 10 4 0 -8 -11 -14 -10 -18 5 -30 10 -7 19 -20 21 -28 2 -8 8 -18 14
-21 5 -3 9 -9 9 -13 -3 -20 0 -26 10 -20 8 5 8 1 0 -14 -8 -15 -7 -23 8 -36 9
-9 23 -16 31 -16 10 0 10 -3 0 -15 -10 -12 -10 -15 3 -15 9 0 19 -4 22 -10 4
-6 -1 -7 -12 -4 -12 4 -8 -2 10 -19 19 -17 24 -27 15 -30 -8 -3 -6 -6 5 -6 10
-1 15 -5 12 -11 -3 -5 -1 -10 6 -10 7 0 9 -8 6 -21 -4 -16 -3 -18 8 -9 11 10
13 8 10 -9 -2 -12 1 -21 8 -21 7 0 27 -32 46 -70 21 -45 37 -68 44 -63 7 4 6
-1 -2 -11 -8 -9 -10 -16 -5 -15 21 4 34 -2 32 -13 -2 -7 3 -12 11 -10 12 3 12
0 1 -13 -11 -13 -10 -15 4 -9 12 5 15 2 9 -12 -5 -14 -3 -16 11 -11 10 4 15 3
11 -3 -3 -5 1 -20 10 -33 8 -13 12 -27 8 -30 -3 -4 -1 -7 5 -7 7 0 11 -3 11
-7 -1 -5 -1 -15 0 -23 1 -13 2 -13 11 0 5 8 10 10 10 4 0 -5 -6 -16 -13 -23
-9 -11 -9 -13 1 -7 8 5 12 0 12 -14 0 -11 7 -23 16 -27 13 -5 13 -7 2 -14 -10
-7 -9 -9 3 -9 9 0 19 -7 22 -14 4 -11 1 -13 -11 -10 -14 5 -15 4 -2 -5 8 -6
15 -16 16 -23 0 -7 8 -27 17 -44 9 -17 14 -34 12 -38 -3 -3 -2 -4 1 -1 4 2 15
0 26 -6 14 -8 16 -14 9 -23 -8 -9 -4 -18 13 -34 13 -11 28 -17 32 -14 4 4 3 0
-2 -8 -12 -21 -14 -41 -3 -34 13 8 11 -10 -3 -25 -10 -11 -10 -13 0 -7 6 4 12
2 12 -4 0 -6 6 -8 13 -4 6 4 4 -2 -7 -14 -17 -20 -18 -22 -2 -28 14 -5 15 -9
4 -15 -10 -7 -10 -9 0 -9 7 0 12 -15 12 -40 0 -22 5 -40 11 -40 5 0 7 -4 4
-10 -3 -5 -2 -10 3 -10 6 0 8 -10 4 -22 -4 -16 -2 -19 8 -13 10 6 12 4 7 -8
-5 -13 -1 -17 16 -18 12 0 17 -3 10 -6 -9 -3 -5 -13 12 -31 13 -14 21 -30 18
-36 -4 -6 1 -5 10 3 15 12 17 12 12 -2 -4 -8 -1 -18 4 -22 6 -3 8 -12 5 -18
-4 -7 -4 -9 0 -6 4 4 18 -3 31 -15 13 -11 29 -26 37 -33 7 -7 20 -20 27 -29
10 -12 16 -13 19 -6 2 7 8 10 13 6 5 -3 9 2 9 10 0 8 6 19 14 23 14 8 16 11
16 36 0 7 3 8 8 2 4 -5 16 -10 27 -10 11 0 24 5 28 10 5 6 7 4 4 -5 -2 -8 -13
-14 -23 -12 -12 2 -8 -4 12 -16 17 -11 31 -27 31 -35 0 -9 -4 -14 -9 -11 -5 3
-5 10 -2 16 4 7 2 8 -4 4 -8 -5 -9 -13 -2 -25 5 -10 6 -21 3 -25 -3 -3 -1 -6
5 -6 7 0 12 -5 12 -11 0 -5 -6 -7 -12 -3 -7 4 -4 -3 7 -16 l20 -23 -20 6 c-17
6 -18 5 -4 -5 21 -17 31 -46 18 -54 -7 -4 -6 -10 0 -18 6 -7 8 -16 4 -19 -3
-4 0 -13 7 -22 10 -12 9 -15 -6 -15 -16 0 -16 -2 -4 -9 8 -6 19 -7 25 -4 5 3
4 0 -2 -8 -15 -16 -17 -33 -3 -24 6 3 10 1 10 -4 0 -6 -4 -11 -10 -11 -5 0
-10 -5 -10 -11 0 -5 5 -7 11 -3 7 4 10 -4 8 -22 -2 -16 0 -35 4 -42 5 -6 5
-12 0 -12 -4 0 -1 -5 7 -10 8 -5 10 -10 5 -10 -6 0 -11 -9 -11 -20 0 -11 3
-20 7 -20 4 0 6 -11 4 -25 -1 -14 1 -25 5 -25 5 0 6 -9 3 -20 -3 -11 0 -20 6
-20 6 0 11 -5 11 -11 0 -5 -4 -8 -8 -5 -4 2 -8 -4 -8 -14 0 -10 4 -16 8 -14 4
3 9 -1 9 -8 1 -7 2 -20 3 -28 0 -8 -6 -21 -14 -28 -8 -8 -10 -11 -4 -8 17 9
24 -31 8 -45 -11 -9 -15 -7 -20 6 -5 13 -8 14 -15 3 -7 -11 -12 -11 -30 0 -11
8 -18 9 -14 3 3 -6 1 -11 -4 -11 -6 0 -11 5 -11 11 0 6 -7 9 -15 6 -8 -4 -17
-2 -20 3 -3 5 -14 7 -25 5 -11 -2 -20 0 -20 6 0 5 -21 9 -46 9 -25 0 -43 4
-40 8 2 4 -5 8 -17 9 -57 2 -99 8 -103 15 -3 4 -14 3 -26 -3 -15 -8 -19 -8
-14 0 4 6 2 11 -3 11 -6 0 -11 7 -11 15 0 9 -8 28 -17 43 -14 21 -14 24 -2 15
12 -10 15 -8 15 8 0 11 -5 17 -12 15 -8 -3 -7 5 3 25 8 16 11 34 7 41 -5 7 -9
21 -9 30 -1 15 1 16 14 5 12 -9 11 -5 -3 17 -10 16 -13 25 -7 22 6 -4 11 0 11
8 0 9 -6 16 -12 16 -9 0 -10 3 -2 8 15 10 16 72 1 72 -8 0 -8 3 1 9 8 4 14 12
14 16 0 4 -6 12 -14 16 -7 5 -8 9 -2 9 15 0 12 63 -4 73 -7 5 -10 12 -7 18 3
5 -1 6 -9 3 -9 -3 -16 -10 -16 -15 0 -4 -7 -5 -17 -2 -11 4 -14 3 -9 -5 4 -7
2 -12 -4 -12 -6 0 -27 -17 -47 -38 -20 -20 -28 -26 -17 -12 l19 25 -23 -19
c-13 -11 -20 -26 -17 -34 4 -12 2 -12 -8 -3 -11 8 -20 6 -40 -13 -14 -13 -28
-21 -31 -18 -3 3 -6 -1 -6 -9 0 -12 -2 -12 -9 0 -7 11 -10 9 -16 -8 -3 -12
-11 -19 -16 -16 -5 4 -9 1 -9 -5 0 -6 -5 -8 -11 -5 -6 4 -13 -3 -16 -15 -4
-16 -8 -18 -14 -8 -7 10 -9 9 -9 -4 0 -12 -5 -15 -17 -11 -12 5 -15 2 -10 -10
4 -11 2 -14 -8 -10 -8 3 -18 -2 -21 -11 -5 -12 -10 -13 -26 -5 -13 7 -18 7
-14 1 3 -6 2 -13 -4 -17 -5 -3 -10 0 -10 7 0 11 -2 11 -9 0 -7 -11 -11 -11
-24 2 -14 15 -16 14 -20 -2 -4 -16 -5 -16 -6 1 0 9 -6 17 -12 17 -5 0 -7 -6
-3 -12 6 -9 3 -9 -9 1 -9 7 -24 11 -32 7 -8 -3 -15 -1 -15 4 0 6 -11 10 -25
10 -14 0 -25 5 -25 11 0 5 -4 7 -10 4 -5 -3 -10 -2 -10 4 0 5 -8 8 -17 7 -10
-2 -24 4 -31 13 -10 12 -12 13 -6 1 5 -10 -1 -8 -16 5 -14 12 -20 14 -15 5 7
-12 5 -12 -11 1 -10 9 -25 14 -32 12 -6 -3 -12 0 -12 5 0 5 -7 13 -16 16 -10
4 -13 2 -8 -6 5 -8 2 -9 -12 -4 -10 5 -25 9 -31 9 -7 0 -13 7 -13 16 0 14 -2
14 -10 1 -9 -13 -10 -13 -10 0 0 13 -1 13 -10 0 -8 -12 -10 -12 -10 5 0 17 -2
17 -10 5 -6 -10 -10 -11 -10 -2 0 6 -3 11 -7 11 -19 -3 -34 2 -29 9 2 4 -4 9
-15 9 -12 1 -17 -3 -13 -10 4 -7 -3 -2 -15 11 -12 12 -30 22 -40 22 -10 0 -26
9 -36 20 -10 11 -22 20 -27 20 -5 0 -24 11 -42 25 -18 14 -38 25 -44 25 -7 0
-12 7 -12 15 0 8 -8 15 -17 15 -15 0 -16 2 -3 10 12 8 10 10 -10 10 -20 0 -22
2 -10 10 13 8 12 10 -2 10 -10 0 -18 5 -18 11 0 5 -4 7 -10 4 -6 -3 -10 1 -10
10 0 9 -4 13 -10 10 -9 -6 -14 7 -11 27 0 4 -7 4 -16 1 -9 -4 -14 -2 -10 3 3
6 -4 11 -15 11 -11 1 -27 10 -35 20 -8 10 -11 11 -7 3 7 -13 5 -13 -9 -1 -9 7
-14 18 -10 24 3 6 1 7 -5 3 -6 -4 -20 2 -30 12 -10 10 -24 16 -30 14 -7 -2
-12 2 -12 8 0 15 -26 41 -34 33 -3 -3 -8 2 -12 11 -3 9 -14 16 -23 16 -14 0
-14 2 -1 10 12 8 11 10 -7 10 -13 0 -23 5 -23 10 0 6 -8 10 -17 10 -9 0 -13 3
-10 6 10 10 -46 55 -61 49 -7 -3 -11 -1 -8 3 6 10 -30 43 -38 35 -3 -4 -6 2
-6 12 0 10 -3 16 -6 12 -4 -3 -13 1 -21 9 -8 8 -19 12 -24 8 -5 -3 -9 -2 -8 3
3 19 -2 34 -9 29 -13 -8 -63 44 -56 56 4 6 3 8 -4 4 -6 -3 -24 7 -40 24 -17
16 -36 30 -42 30 -10 0 -10 3 0 15 10 12 8 13 -10 10 -19 -4 -20 -2 -9 13 7 9
10 14 5 10 -4 -4 -14 -1 -21 5 -10 9 -10 15 -1 26 9 12 8 13 -3 6 -11 -6 -13
-3 -9 13 4 15 2 19 -8 15 -17 -6 -18 9 -1 26 9 11 9 13 0 7 -7 -4 -13 -2 -13
4 0 6 -5 8 -12 4 -9 -5 -9 -2 1 9 10 13 10 17 1 17 -9 0 -10 3 -1 13 8 11 6
18 -9 32 -12 10 -18 25 -15 32 2 8 1 12 -4 9 -13 -8 -20 41 -8 53 8 8 7 11 -2
11 -11 0 -11 3 -1 15 10 12 10 15 -1 15 -10 0 -10 3 -1 12 15 15 15 28 1 28
-5 0 -7 -5 -3 -12 5 -7 3 -8 -5 -4 -9 6 -8 13 5 28 15 16 16 21 4 28 -12 7
-12 17 -3 50 8 30 7 40 -1 37 -6 -3 -10 -10 -8 -16 1 -7 -2 -10 -8 -6 -7 4 -5
14 5 28 20 29 19 42 -2 26 -15 -11 -16 -11 -6 0 6 7 9 21 6 30 -4 14 -3 14 7
1 10 -13 11 -12 6 3 -3 10 -6 26 -6 35 0 15 -2 15 -11 2 -8 -12 -9 -10 -4 7 3
12 1 24 -5 28 -5 3 -10 11 -10 17 0 5 9 0 21 -13 20 -24 20 -24 9 -2 -6 13 -7
23 -3 23 4 0 0 5 -10 11 -15 9 -16 13 -5 26 14 17 20 46 8 38 -4 -3 -11 2 -14
11 -3 8 -2 13 3 10 5 -3 12 2 15 11 4 10 4 14 0 10 -4 -4 -13 1 -20 11 -9 12
-9 22 -2 37 6 11 7 17 3 13 -9 -8 -35 16 -35 33 0 6 -10 20 -21 30 -14 12 -19
25 -15 35 5 14 4 15 -9 4 -12 -10 -15 -10 -15 4 0 9 -6 16 -12 16 -10 0 -9 3
1 9 11 7 9 10 -8 16 -12 3 -19 10 -16 15 3 5 -2 15 -10 23 -11 12 -12 17 -2
20 6 3 1 6 -13 7 -23 1 -23 2 -5 10 11 5 14 9 7 9 -7 1 -10 5 -7 11 3 5 -2 10
-12 10 -15 0 -16 2 -3 10 13 9 13 10 0 11 -8 1 -19 1 -25 -1 -5 -1 -1 9 10 21
18 20 18 22 3 16 -20 -7 -25 9 -5 16 7 3 4 6 -7 6 -15 1 -16 4 -7 15 10 12 9
18 -6 33 -19 19 -24 59 -9 82 5 8 5 12 0 9 -5 -3 -16 1 -24 10 -13 14 -12 15
3 9 14 -5 16 -3 9 10 -5 9 -7 24 -5 34 3 12 0 19 -8 19 -11 0 -11 2 1 10 8 5
11 10 6 10 -5 0 -2 8 5 17 12 14 12 16 -1 9 -9 -4 -8 -1 3 7 20 16 23 31 5 22
-7 -4 -6 -1 2 7 19 17 19 100 0 124 -9 11 -10 15 -2 10 7 -4 12 -1 12 9 0 9
-4 14 -9 10 -5 -3 -3 7 4 23 8 15 13 38 10 50 -2 12 0 24 5 27 4 3 6 14 3 25
-4 14 0 20 11 20 10 0 14 5 11 10 -4 6 -11 8 -16 5 -5 -3 -6 1 -3 9 3 9 11 16
18 16 6 0 4 5 -4 10 -12 7 -12 10 -1 10 7 0 11 6 7 15 -3 8 0 15 6 15 7 0 7 4
-1 14 -10 11 -8 17 6 25 13 7 14 10 4 11 -11 0 -9 4 5 15 19 15 19 15 -1 8
-20 -6 -20 -6 -1 15 14 16 15 22 6 22 -9 0 -7 5 6 16 10 8 13 13 6 9 -8 -4
-11 1 -8 17 2 13 10 22 17 20 10 -2 10 0 0 11 -9 12 -9 16 1 20 11 4 11 6 0 6
-10 1 -10 6 -2 21 6 11 7 20 3 20 -4 0 -2 5 5 12 14 14 16 32 2 23 -6 -3 -7 1
-4 9 3 9 11 16 16 16 6 0 4 8 -3 17 -8 9 -9 14 -3 10 7 -4 14 0 18 8 3 8 1 17
-4 20 -13 8 -13 25 1 25 5 0 7 -5 3 -12 -4 -7 -3 -8 4 -4 9 5 9 13 2 27 -6 10
-7 19 -2 19 5 0 9 10 8 23 0 12 4 21 11 20 8 -2 9 6 3 27 -7 25 -5 32 13 45
18 13 19 15 4 15 -19 0 -23 16 -6 22 5 2 10 22 11 46 0 24 5 42 12 42 6 0 5 4
-3 9 -13 8 -13 12 0 27 9 11 9 15 2 10 -8 -4 -13 -1 -13 9 0 9 4 14 9 11 5 -4
4 5 -2 19 -7 14 -18 25 -25 25 -8 0 -10 5 -6 13 5 8 2 8 -9 -2 -14 -11 -20
-11 -34 0 -11 10 -14 10 -9 2 4 -8 1 -13 -9 -13 -9 0 -19 -9 -22 -20 -3 -11
-9 -17 -14 -14 -5 3 -6 -3 -2 -12 5 -14 3 -16 -12 -11 -15 6 -16 5 -5 -8 10
-12 10 -15 0 -15 -10 0 -10 -3 0 -15 11 -13 10 -14 -4 -9 -12 5 -15 2 -9 -12
5 -13 3 -15 -8 -9 -12 7 -12 6 -1 -7 14 -17 1 -34 -18 -23 -6 3 -7 -1 -4 -9 3
-9 11 -13 18 -9 6 4 5 -1 -3 -10 -7 -9 -17 -14 -22 -11 -15 9 -10 -3 8 -22 17
-17 17 -18 -1 -11 -15 6 -17 4 -13 -12 3 -12 -1 -22 -12 -26 -14 -6 -13 -8 4
-15 13 -6 15 -9 5 -9 -23 -1 -44 -40 -30 -55 7 -10 6 -17 -7 -27 -16 -13 -17
-12 -4 4 9 11 10 17 2 17 -6 0 -11 -4 -11 -10 0 -21 -2 -26 -18 -45 -16 -19
-16 -19 1 -6 9 8 20 11 24 7 3 -3 1 -6 -5 -6 -7 0 -12 -7 -12 -16 0 -9 -6 -14
-12 -11 -9 3 -13 -5 -13 -23 0 -16 4 -26 10 -22 6 3 1 -5 -10 -18 -11 -13 -15
-21 -9 -17 6 3 11 0 11 -8 0 -8 -5 -11 -10 -8 -6 4 -8 -3 -4 -16 4 -17 3 -20
-7 -12 -10 8 -12 4 -11 -19 1 -20 -3 -30 -12 -30 -8 0 -11 -5 -8 -10 4 -6 12
-8 18 -4 7 3 4 -1 -5 -9 -21 -16 -24 -31 -5 -22 6 4 4 0 -5 -8 -23 -18 -23
-28 0 -21 9 4 5 -3 -11 -13 -15 -11 -24 -22 -21 -26 3 -3 1 -14 -5 -24 -6 -10
-11 -12 -11 -5 0 6 -5 12 -11 12 -6 0 -8 -7 -5 -16 4 -12 2 -15 -9 -11 -8 4
-17 2 -20 -3 -6 -9 -18 -8 -55 7 -14 6 -30 8 -37 6 -15 -6 -54 28 -46 40 4 6
0 8 -8 5 -11 -4 -15 1 -15 17 0 13 4 21 9 18 5 -3 5 3 -1 13 -5 11 -9 32 -8
47 1 16 -2 31 -7 34 -4 2 -3 11 3 18 8 10 8 15 -1 21 -8 5 -9 3 -4 -6 5 -9 4
-11 -3 -6 -8 4 -8 15 -2 31 5 14 6 25 1 25 -4 0 -6 11 -3 25 3 17 0 25 -9 25
-11 0 -11 2 1 10 13 9 13 10 0 10 -13 0 -13 1 0 10 12 8 12 10 1 10 -10 0 -11
3 -3 13 7 8 7 18 2 27 -13 21 -12 33 2 24 7 -4 8 -3 4 5 -4 6 -11 9 -16 6 -13
-8 -20 21 -7 34 8 8 8 11 -2 11 -10 0 -11 3 -2 14 9 10 9 16 1 21 -6 4 -9 13
-6 21 3 8 -1 14 -10 14 -8 0 -12 5 -9 10 4 6 12 7 18 4 9 -5 9 -4 0 6 -6 7 -9
19 -6 28 5 11 3 13 -8 7 -11 -7 -11 -5 1 10 8 10 10 16 3 12 -8 -5 -12 0 -12
15 0 13 -1 33 -1 46 0 12 -6 22 -13 22 -8 0 -7 4 3 10 8 5 10 10 5 10 -6 0
-12 23 -13 51 0 28 -7 58 -14 67 -10 13 -10 14 0 8 9 -5 12 1 10 23 -1 17 -7
31 -13 31 -6 0 -7 3 0 8 15 11 17 32 3 32 -9 0 -8 4 2 10 12 8 12 10 1 10 -8
0 -11 7 -8 20 3 11 1 20 -3 20 -5 0 -7 9 -5 20 2 11 0 22 -6 25 -5 4 -5 13 1
25 13 25 13 39 -1 20 -9 -12 -10 -11 -6 7 3 12 0 24 -7 27 -7 3 -7 5 2 5 9 1
10 6 3 20 -6 10 -7 21 -4 25 3 3 0 6 -8 6 -11 0 -11 2 1 10 12 7 12 10 1 10
-7 0 -11 6 -8 15 4 8 2 17 -3 20 -5 3 -6 13 -3 22 4 11 3 14 -5 9 -8 -4 -10
-2 -6 8 3 8 -2 16 -13 19 -16 4 -17 5 0 6 15 1 15 4 5 21 -7 11 -18 20 -25 20
-7 0 -13 5 -13 11 0 5 -6 7 -12 3 -10 -6 -10 -5 -1 8 15 18 7 29 -15 21 -11
-5 -13 -3 -7 8 8 12 6 12 -8 0 -9 -7 -17 -9 -17 -4 0 5 -7 10 -15 10 -10 0
-14 -6 -10 -16 3 -8 3 -13 0 -9 -4 3 -14 -1 -24 -10 -15 -15 -15 -18 -1 -30
13 -11 13 -11 -1 -7 -9 3 -22 -1 -29 -10 -11 -13 -11 -16 0 -13 7 2 15 -3 18
-11 2 -8 0 -11 -5 -8 -12 8 -11 -33 1 -52 7 -11 5 -13 -6 -9 -18 8 -18 -30 1
-42 11 -6 11 -8 0 -12 -12 -4 -12 -7 0 -22 12 -14 12 -16 0 -11 -11 4 -14 -5
-14 -34 0 -21 3 -37 7 -34 5 2 8 0 8 -6 0 -5 -6 -12 -12 -14 -7 -3 -4 -6 6 -6
20 -1 20 -1 0 -17 -10 -8 -14 -13 -7 -10 8 4 11 -3 9 -21 -2 -16 0 -33 6 -39
5 -8 3 -18 -7 -28 -10 -9 -12 -16 -5 -16 7 0 9 -12 6 -30 -2 -17 -1 -30 4 -30
9 0 7 -26 -3 -36 -3 -4 -2 -16 4 -27 8 -14 8 -18 0 -13 -15 10 -14 -7 2 -23 6
-8 7 -11 1 -8 -6 3 -11 0 -11 -8 0 -8 5 -11 11 -8 6 4 5 -1 -3 -10 -12 -15
-11 -17 5 -18 18 0 18 -1 -1 -9 -11 -5 -15 -9 -9 -9 17 -1 25 -29 12 -37 -7
-5 -8 -2 -3 6 5 8 4 11 -3 6 -6 -4 -9 -13 -5 -22 4 -12 8 -12 22 -2 12 9 11 7
-2 -9 -18 -20 -18 -22 0 -33 14 -9 14 -10 1 -6 -16 5 -17 -4 -4 -36 4 -9 5
-22 1 -28 -3 -5 -2 -10 2 -10 5 0 9 -9 9 -19 0 -11 -4 -17 -8 -15 -4 3 -8 0
-8 -5 0 -6 5 -11 11 -11 6 0 7 -5 2 -12 -4 -7 -6 -21 -5 -30 2 -10 -3 -18 -10
-19 -7 0 -4 -4 7 -9 19 -8 19 -9 1 -9 -11 -1 -16 -4 -13 -8 4 -3 1 -13 -6 -21
-10 -13 -9 -14 3 -7 13 8 13 6 2 -8 -8 -9 -10 -22 -6 -29 5 -8 1 -8 -11 2 -17
14 -18 14 -6 -7 11 -22 8 -27 -14 -24 -5 1 -1 -6 9 -14 18 -14 18 -15 2 -15
-9 0 -14 -4 -11 -10 3 -5 0 -10 -7 -10 -9 0 -9 -3 2 -10 13 -8 12 -10 -2 -10
-16 0 -22 -10 -20 -30 0 -3 -8 -6 -19 -6 -19 0 -20 1 -2 14 16 13 16 14 1 9
-10 -3 -20 -2 -23 2 -3 5 -15 7 -27 3 -17 -4 -20 -2 -15 12 5 13 1 19 -12 23
-11 3 -21 13 -24 24 -3 12 -1 17 6 12 6 -4 1 7 -11 24 -24 34 -29 58 -9 47 6
-4 1 5 -13 21 -14 16 -19 25 -12 21 10 -6 10 -2 0 21 -7 15 -15 30 -19 33 -3
3 -11 15 -18 28 -9 17 -9 22 1 22 10 0 10 2 -1 9 -7 5 -10 14 -7 20 4 6 4 11
-1 10 -20 -3 -27 2 -13 11 10 6 11 10 3 10 -7 0 -13 7 -13 16 0 8 -4 13 -9 10
-4 -3 -7 6 -5 19 1 14 -2 25 -7 25 -6 0 -7 5 -4 10 3 6 1 10 -5 10 -6 0 -9 4
-5 9 3 5 -1 16 -9 24 -11 11 -12 17 -3 27 9 10 9 11 0 6 -9 -5 -13 2 -13 23 0
20 -5 31 -14 31 -9 0 -13 9 -11 25 1 14 -2 25 -7 25 -6 0 -8 7 -5 14 4 10 1
13 -7 10 -8 -3 -12 3 -10 18 1 13 3 23 4 23 1 0 3 8 5 18 3 14 -1 17 -18 12
-16 -5 -18 -4 -8 3 9 7 11 17 6 28 -4 11 -8 31 -9 46 0 14 -5 30 -10 35 -5 5
-6 2 -1 -6 6 -10 4 -12 -4 -7 -9 6 -9 11 0 22 8 10 8 14 0 14 -6 0 -11 9 -11
21 0 12 -4 17 -11 13 -7 -4 -7 1 1 16 7 12 8 20 3 17 -4 -3 -14 1 -21 9 -7 8
-8 14 -2 14 5 0 2 9 -7 19 -9 11 -21 17 -26 14 -6 -3 -7 -1 -3 6 4 6 12 9 17
6 5 -4 9 -1 9 4 0 6 -4 11 -10 11 -5 0 -10 9 -10 21 0 11 -5 17 -10 14 -5 -3
-10 -1 -10 4 0 6 4 11 8 11 5 0 9 7 9 15 0 10 -6 14 -15 10 -10 -3 -12 0 -8
10 3 8 1 15 -4 15 -6 0 -9 6 -7 13 1 6 -5 11 -13 9 -12 -3 -12 -1 -3 9 15 15
6 39 -16 39 -14 0 -14 2 -1 10 10 6 11 10 3 10 -7 0 -12 3 -12 8 4 24 -2 42
-13 36 -7 -5 -8 -3 -2 7 16 26 13 41 -9 47 -20 5 -20 6 -1 13 15 6 16 8 2 8
-16 1 -19 16 -5 38 5 7 0 10 -15 6 -19 -4 -20 -3 -8 6 13 9 13 11 -2 11 -12 0
-15 6 -10 22 4 15 2 19 -7 14 -8 -6 -11 -2 -9 10 2 13 -3 19 -15 18 -10 -1
-16 0 -13 3 9 9 -14 44 -25 38 -5 -4 -9 -1 -9 6 0 8 -5 7 -17 -2 -11 -10 -14
-10 -9 -1 9 16 -6 16 -23 0 -11 -10 -13 -10 -7 0 10 17 -2 15 -20 -3 -9 -8
-12 -15 -8 -15 3 0 0 -8 -7 -17 -12 -15 -12 -16 1 -8 12 7 13 6 3 -7 -8 -8
-11 -32 -9 -56 3 -27 0 -42 -7 -42 -7 0 -5 -5 3 -10 12 -8 12 -10 1 -10 -11 0
-11 -3 -1 -15 15 -18 16 -17 -37 -19 -25 -2 -40 2 -36 8 4 5 -1 7 -10 3 -12
-4 -17 -1 -17 11 0 15 -2 15 -10 2 -5 -8 -10 -10 -10 -3 0 6 -9 9 -20 6 -11
-3 -20 -10 -20 -15 0 -5 -4 -7 -9 -3 -5 3 -12 -4 -16 -15 -4 -11 -10 -18 -14
-16 -4 3 -8 -1 -8 -9 0 -8 5 -11 10 -8 6 4 7 1 2 -7 -12 -19 -15 -61 -4 -54
12 7 11 -7 0 -25 -6 -10 -5 -23 2 -35 15 -28 16 -56 3 -56 -6 0 -5 -4 3 -9 10
-7 11 -13 1 -31 -8 -15 -8 -20 -1 -16 6 4 11 1 11 -8 0 -8 -5 -18 -10 -21 -13
-8 -3 -25 13 -25 7 0 6 4 -3 10 -9 6 -10 10 -3 10 20 0 24 -18 7 -34 -11 -12
-12 -16 -2 -16 10 0 9 -3 -2 -10 -14 -9 -7 -14 13 -11 5 1 5 -4 0 -11 -12 -19
-12 -129 0 -121 6 4 7 1 1 -8 -13 -21 -14 -39 -1 -39 7 0 6 -5 -3 -10 -13 -9
-13 -11 0 -20 8 -5 10 -10 5 -10 -6 0 -11 -9 -12 -20 -1 -12 3 -18 9 -14 6 4
6 -2 -1 -15 -8 -14 -8 -21 -1 -21 5 0 10 -5 10 -11 0 -5 -4 -8 -8 -5 -11 6 -9
-34 1 -51 5 -8 3 -13 -5 -13 -9 0 -9 -3 2 -10 12 -7 12 -10 1 -10 -8 0 -11 -6
-7 -16 3 -8 2 -12 -3 -9 -5 3 -12 1 -16 -5 -3 -5 -2 -10 4 -10 6 0 8 -7 4 -16
-5 -13 -7 -13 -14 -2 -7 10 -9 11 -9 0 0 -7 -5 -10 -10 -7 -6 4 -7 11 -4 17 5
7 2 8 -7 2 -19 -11 -40 -14 -34 -4 3 4 -10 11 -28 14 -41 8 -46 8 -82 1 -16
-3 -36 -6 -43 -7 -8 -1 -11 -9 -9 -20 4 -15 2 -17 -8 -8 -9 8 -17 4 -30 -16
-11 -17 -12 -24 -4 -18 11 6 11 4 0 -10 -12 -15 -12 -19 8 -32 12 -9 19 -20
16 -25 -6 -8 16 -14 38 -10 5 1 6 -3 2 -9 -3 -6 -12 -8 -18 -4 -7 3 0 -4 16
-16 15 -12 27 -29 27 -38 0 -15 2 -15 10 -2 8 12 10 10 10 -8 0 -13 4 -20 10
-17 5 3 15 -5 22 -19 6 -14 15 -26 20 -26 5 0 6 -4 3 -10 -3 -5 -1 -10 5 -10
19 0 61 -48 47 -53 -7 -3 -4 -6 7 -6 12 -1 16 -6 13 -15 -4 -9 2 -17 14 -21
10 -4 18 -9 15 -13 -7 -13 14 -53 24 -47 7 4 7 -2 0 -19 -9 -25 -4 -31 23 -27
4 0 7 -3 7 -9 0 -5 -6 -10 -12 -10 -8 -1 -6 -6 5 -14 14 -11 15 -15 5 -19 -10
-4 -10 -6 0 -6 6 -1 12 -6 12 -12 0 -6 7 -17 15 -26 8 -8 12 -19 9 -25 -4 -6
-2 -8 4 -4 6 3 13 -3 17 -14 3 -11 13 -20 21 -20 8 0 14 -7 14 -15 0 -8 5 -15
10 -15 6 0 10 -6 10 -13 0 -8 11 -19 25 -25 14 -6 25 -16 25 -22 0 -5 7 -10
15 -10 8 0 14 -6 13 -12 -2 -7 3 -12 10 -10 6 1 13 -2 13 -8 1 -5 2 -15 3 -21
0 -6 9 -17 20 -24 11 -8 16 -21 13 -29 -4 -9 -3 -15 1 -15 21 3 31 -3 26 -15
-3 -8 3 -25 15 -37 11 -12 18 -25 16 -29 -3 -4 2 -13 10 -20 12 -10 13 -16 3
-28 -10 -13 -10 -14 0 -8 7 4 12 1 12 -8 0 -9 4 -16 8 -16 4 0 9 -10 9 -22 1
-13 10 -28 19 -35 17 -12 17 -13 -2 -14 -18 0 -18 -1 1 -8 11 -5 21 -13 21
-20 1 -6 2 -16 3 -22 0 -5 7 -7 14 -3 8 5 8 2 -2 -9 -10 -13 -10 -17 -1 -17 7
0 10 -7 6 -16 -4 -10 -2 -13 6 -8 8 5 9 2 5 -9 -4 -11 -1 -17 8 -17 9 0 12 -6
9 -15 -4 -9 -1 -15 7 -15 10 0 10 -3 1 -12 -8 -8 -6 -18 10 -41 14 -19 16 -28
7 -23 -11 6 -11 5 1 -6 8 -7 15 -25 14 -40 -1 -15 3 -25 7 -22 8 5 14 -17 10
-38 0 -5 5 -8 11 -8 9 0 8 -4 -2 -10 -13 -8 -13 -10 2 -10 11 0 15 -5 12 -15
-4 -8 -1 -15 5 -15 9 0 9 -5 0 -21 -8 -15 -8 -19 0 -15 7 5 11 -2 11 -18 0
-14 5 -28 10 -31 6 -4 10 -14 9 -23 -1 -10 -1 -24 0 -32 1 -13 2 -13 11 0 5 8
10 10 10 4 0 -5 -5 -15 -12 -22 -9 -9 -9 -12 2 -12 7 0 10 -3 7 -7 -4 -3 2
-13 13 -20 11 -8 18 -18 15 -23 -9 -15 6 -39 21 -33 8 3 14 0 14 -6 0 -6 -6
-11 -12 -12 -7 0 -3 -5 9 -11 13 -6 23 -19 23 -30 0 -10 5 -18 10 -18 6 0 10
-6 10 -14 0 -8 13 -28 29 -45 15 -16 34 -44 41 -61 12 -28 22 -35 44 -31 5 1
4 -5 -4 -13 -12 -16 -4 -22 23 -17 5 1 6 -3 2 -9 -3 -5 1 -13 10 -16 12 -5 13
-9 5 -14 -9 -5 -6 -10 9 -15 12 -3 19 -10 16 -14 -6 -11 30 -52 39 -44 4 4 4
0 1 -8 -4 -11 1 -18 14 -22 14 -3 19 -10 15 -21 -3 -9 -1 -16 5 -16 6 0 11 -7
11 -16 0 -10 6 -14 14 -11 10 4 13 1 9 -9 -3 -7 0 -14 6 -14 6 0 8 -7 5 -15
-4 -9 0 -15 10 -15 9 0 15 -3 14 -7 -5 -19 15 -53 30 -53 15 0 15 -2 2 -10
-13 -8 -12 -10 3 -10 16 0 22 -12 18 -34 -1 -5 5 -6 13 -3 9 4 15 3 15 -1 -3
-21 2 -32 13 -26 8 5 9 0 5 -15 -4 -17 -2 -21 9 -17 8 3 13 0 11 -7 -1 -7 4
-11 11 -9 10 2 10 -2 2 -18 -7 -13 -7 -20 0 -20 5 0 10 -7 10 -15 0 -8 8 -15
18 -15 14 0 15 -2 2 -10 -9 -6 -11 -10 -3 -10 7 0 10 -7 6 -17 -5 -12 -2 -15
10 -10 11 4 14 2 10 -9 -3 -8 3 -25 13 -37 12 -14 13 -17 3 -9 -13 9 -16 9
-16 -3 0 -8 4 -15 9 -15 5 0 6 -6 2 -12 -6 -10 -4 -10 8 0 14 11 16 11 14 0
-1 -7 -6 -19 -10 -27 -6 -10 -5 -12 2 -7 7 4 12 2 12 -4 0 -6 6 -8 13 -4 6 4
9 4 5 -1 -4 -4 -2 -15 5 -23 8 -11 8 -14 0 -9 -6 4 -14 3 -18 -3 -3 -5 3 -10
14 -10 14 0 21 -6 21 -20 0 -13 7 -20 20 -20 11 0 20 -5 20 -11 0 -5 -6 -7
-12 -3 -8 4 -10 3 -5 -2 5 -5 12 -9 15 -10 20 -2 62 -25 62 -33 0 -5 9 -8 20
-6 11 2 23 -1 26 -7 5 -7 2 -8 -6 -3 -9 6 -11 4 -6 -4 5 -7 15 -10 24 -6 9 3
13 3 10 -1 -4 -3 -1 -13 7 -20 17 -17 28 -18 20 -1 -4 6 4 0 17 -16 19 -22 26
-25 37 -15 11 11 13 11 7 0 -4 -7 0 -15 11 -19 10 -4 21 -11 26 -17 5 -7 10
-6 17 4 9 13 10 13 10 0 0 -16 60 -53 85 -53 8 0 18 -9 21 -20 5 -16 8 -17 15
-6 6 10 9 11 9 2 0 -7 7 -13 15 -13 8 0 15 -4 15 -9 0 -8 16 -15 43 -19 4 -1
15 -8 23 -17 9 -8 22 -15 30 -15 8 0 14 -3 14 -7 0 -9 49 -33 67 -33 7 0 12
-3 12 -7 -4 -22 3 -25 16 -7 13 16 14 16 9 1 -5 -13 1 -18 25 -23 17 -4 34
-11 38 -17 4 -6 1 -7 -8 -3 -8 4 -6 1 4 -7 18 -15 18 -15 0 -20 -16 -4 -16 -5
1 -6 20 -1 20 -1 0 -16 -12 -9 -14 -14 -5 -15 8 0 4 -8 -10 -20 -13 -10 -18
-19 -11 -20 6 0 12 5 12 11 0 5 5 7 11 3 8 -5 6 -10 -5 -16 -9 -5 -14 -13 -11
-19 4 -5 1 -9 -6 -9 -6 0 -9 -8 -6 -20 4 -14 0 -20 -11 -20 -10 0 -13 -3 -7
-8 12 -9 16 -44 4 -36 -5 3 -9 -4 -9 -15 0 -12 -6 -21 -12 -21 -10 0 -10 -2
-1 -8 14 -9 8 -44 -15 -86 -3 -5 0 -6 6 -3 6 5 8 0 5 -13 -3 -11 -10 -17 -17
-13 -7 4 -7 1 1 -8 10 -12 10 -18 0 -29 -10 -10 -9 -11 1 -5 12 6 12 3 2 -15
-10 -18 -9 -24 1 -31 10 -6 10 -9 2 -9 -7 0 -10 -7 -6 -17 4 -9 2 -14 -3 -11
-10 7 -11 -73 0 -90 3 -6 2 -13 -2 -16 -10 -6 -9 -41 2 -74 6 -19 10 -21 22
-11 8 6 14 7 14 2 0 -4 68 -9 150 -9 104 -1 150 2 150 10 0 8 3 8 8 0 10 -15
1104 -15 1114 0 5 8 8 8 8 0 0 -15 382 -15 392 0 6 8 8 8 8 0 0 -15 70 -17 70
-1 0 8 3 9 8 1 10 -14 185 -15 194 0 5 7 8 7 8 1 0 -14 2638 -14 2659 -1 9 6
12 5 8 0 -7 -12 1722 -13 1740 -1 6 4 14 3 18 -3 3 -5 11 -10 16 -10 6 0 8 3
6 8 -3 4 100 7 228 7 128 0 232 -2 229 -6 -2 -4 34 -7 81 -7 56 1 85 5 85 12
0 7 3 8 8 1 9 -14 159 -18 167 -5 4 6 12 7 18 3 20 -13 807 -12 807 1 0 8 3 8
8 1 9 -14 583 -15 575 -2 -4 6 -1 7 8 1 20 -13 181 -12 198 0 12 9 13 8 6 -4
-8 -13 -7 -13 8 -1 13 11 15 17 6 28 -10 11 -9 12 5 7 11 -4 16 -1 16 10 0 9
5 16 11 16 7 0 9 10 5 24 -3 14 -1 28 6 32 7 5 8 3 3 -6 -5 -9 -4 -11 4 -6 6
4 8 13 4 19 -4 7 -9 23 -9 37 -3 39 -3 42 -13 36 -5 -4 -7 4 -3 16 5 20 3 21
-10 10 -13 -10 -18 -10 -24 -1 -4 7 -3 9 3 6 6 -4 16 0 23 8 9 10 9 15 1 15
-6 0 -10 3 -10 8 3 18 -2 33 -9 28 -5 -3 -9 1 -9 9 0 8 4 12 9 9 4 -3 8 0 8 5
0 6 -6 11 -12 11 -9 0 -8 3 2 10 13 8 13 11 1 22 -11 11 -13 11 -6 -1 5 -9 4
-12 -3 -8 -5 4 -8 17 -4 29 4 16 2 19 -9 13 -12 -8 -12 -6 0 8 9 11 10 17 2
17 -6 0 -11 4 -11 10 0 5 8 7 18 3 14 -5 14 -4 -2 9 -12 10 -19 27 -18 47 0
18 -3 29 -9 25 -5 -3 -1 9 10 27 11 18 17 37 14 42 -3 6 -1 7 6 3 6 -4 8 -13
5 -19 -4 -7 7 3 25 21 17 18 31 38 31 44 0 5 7 7 16 4 8 -3 12 -2 9 4 -3 6 -1
10 4 10 6 0 11 8 12 18 0 10 3 12 6 5 3 -10 8 -10 19 1 8 8 14 19 14 25 0 6 9
15 21 21 11 7 18 14 15 17 -3 3 2 12 10 20 8 8 12 19 9 24 -4 5 -1 9 6 9 6 0
9 8 6 19 -3 14 -1 18 9 14 8 -3 14 -1 15 3 0 5 2 19 5 31 2 13 -1 23 -6 23 -6
0 -10 4 -10 10 0 5 8 7 18 4 15 -5 15 -4 -1 6 -15 10 -16 14 -5 27 11 14 10
15 -12 9 -14 -4 -20 -4 -14 1 6 4 10 16 8 26 -2 14 2 17 14 13 9 -3 4 6 -13
20 -22 19 -24 23 -7 15 12 -7 22 -10 23 -9 6 24 5 37 -2 32 -5 -3 -6 -10 -3
-16 4 -6 3 -8 -3 -5 -5 3 -8 19 -7 35 1 19 -3 29 -12 29 -11 0 -11 -3 -1 -16
11 -14 10 -14 -6 -2 -9 8 -15 16 -13 19 12 12 -17 44 -35 39 -10 -3 -22 0 -26
5 -3 7 -1 8 5 4 7 -4 12 -2 12 5 0 6 -8 9 -19 6 -14 -3 -18 -1 -14 9 3 8 0 14
-7 14 -6 0 -8 5 -4 13 5 7 0 6 -11 -3 -10 -8 -16 -10 -13 -5 3 6 0 15 -7 22
-11 10 -15 10 -18 0 -3 -7 -6 -2 -6 9 -1 23 -25 38 -44 27 -7 -3 -9 -3 -5 1 3
4 -3 19 -14 32 -16 18 -25 21 -34 13 -10 -8 -12 -6 -9 10 2 11 1 20 -3 20 -20
-3 -32 2 -27 11 3 6 -1 7 -9 4 -9 -3 -16 -1 -16 6 0 6 -4 9 -9 6 -5 -3 -12 1
-15 10 -3 9 -11 12 -18 8 -7 -5 -9 -2 -6 8 4 10 0 14 -16 14 -12 -1 -20 4 -19
11 2 7 0 12 -5 11 -14 -5 -72 27 -72 39 0 7 -4 13 -9 13 -5 0 -12 7 -15 16 -6
15 -4 15 10 3 16 -13 16 -12 6 8 -7 12 -17 24 -24 26 -8 3 -6 6 4 6 11 1 15 6
12 16 -4 8 -11 12 -18 8 -6 -3 -6 -1 2 8 15 16 16 33 0 23 -7 -5 -8 -3 -3 6 4
7 2 16 -6 21 -10 6 -11 9 -1 9 6 0 12 5 12 11 0 5 -4 7 -10 4 -7 -4 -7 2 0 19
6 17 6 27 -2 32 -7 5 -8 3 -3 -6 6 -9 4 -11 -4 -5 -9 5 -10 10 -2 18 14 14 14
30 0 21 -8 -4 -8 0 0 15 9 16 9 21 -1 21 -9 0 -9 3 2 10 11 7 11 10 2 10 -8 0
-10 5 -6 12 5 8 1 9 -12 5 -18 -7 -18 -7 0 8 13 10 15 15 6 15 -7 0 -10 3 -7
7 4 3 1 13 -6 21 -10 13 -9 15 7 9 15 -6 17 -5 8 6 -7 8 -9 17 -5 20 3 4 -2 7
-12 7 -18 0 -18 1 1 16 10 8 13 13 7 9 -7 -3 -13 -1 -13 5 0 6 -5 8 -12 4 -7
-4 -8 -3 -4 5 4 6 11 9 15 7 4 -3 8 1 8 9 0 8 -7 15 -16 15 -12 0 -12 3 -3 12
17 17 15 31 -4 24 -10 -4 -13 -2 -8 6 11 17 10 69 0 75 -5 4 -6 0 -1 -7 5 -9
4 -11 -4 -6 -9 6 -9 11 -1 21 8 10 7 14 -2 18 -11 4 -11 9 0 27 8 12 9 19 3
15 -10 -6 -15 14 -14 53 1 6 -4 12 -10 12 -8 0 -8 3 -1 10 12 12 -5 80 -20 80
-4 0 -2 8 5 17 10 11 10 14 2 9 -9 -5 -13 -1 -13 13 0 11 -9 22 -20 26 -12 4
-20 15 -20 28 0 18 -2 19 -10 7 -8 -13 -10 -12 -10 3 0 9 -7 17 -16 17 -10 0
-14 5 -10 16 3 8 2 12 -4 9 -6 -3 -10 1 -10 10 0 10 5 13 13 9 7 -5 6 0 -3 11
-12 15 -12 17 -1 10 11 -6 13 -4 8 8 -3 9 0 20 7 24 21 13 24 37 7 50 -14 10
-12 12 8 8 19 -4 22 -2 13 7 -7 7 -12 22 -12 35 0 13 -4 23 -9 23 -5 0 -8 8
-6 18 1 9 -1 25 -6 34 -6 11 -5 18 4 21 6 3 4 6 -7 6 -15 1 -16 4 -6 16 7 9 8
15 2 15 -6 0 -9 12 -7 26 1 15 -3 28 -12 31 -9 4 -11 9 -3 18 7 9 6 16 -4 24
-8 7 -13 23 -11 36 1 14 -2 22 -7 18 -6 -3 -7 3 -3 17 5 15 4 20 -4 16 -6 -4
-11 0 -11 9 0 10 5 14 13 10 6 -4 1 3 -13 14 -14 12 -18 19 -8 15 15 -5 18 9
8 36 -1 3 -2 8 -1 12 0 4 -7 4 -16 1 -12 -5 -14 -3 -8 7 11 18 15 61 5 55 -5
-3 -12 0 -16 6 -5 8 -3 9 6 4 10 -6 12 -4 6 10 -5 15 -4 16 9 5 8 -7 15 -9 15
-5 0 4 7 2 15 -5 8 -6 19 -9 25 -5 5 3 10 1 10 -5 0 -7 7 -9 16 -6 8 3 12 2 9
-4 -3 -6 1 -10 10 -10 10 0 13 -5 9 -12 -5 -8 -2 -9 9 -5 23 9 47 -2 47 -20 0
-10 7 -14 20 -10 11 3 18 2 16 -1 -2 -4 2 -13 10 -19 9 -9 15 -10 20 -2 4 8
12 3 20 -12 8 -15 14 -18 14 -9 0 10 5 8 13 -7 7 -12 17 -23 22 -25 6 -2 9 -6
8 -10 -2 -5 2 -8 7 -8 6 0 10 6 10 13 0 6 5 4 11 -6 6 -9 15 -15 20 -11 5 3 8
2 7 -3 -2 -4 1 -9 5 -10 5 -1 17 -11 27 -23 13 -15 19 -17 23 -8 4 11 6 10 6
0 1 -7 6 -10 13 -6 7 5 9 2 5 -8 -6 -17 8 -19 32 -4 10 6 12 5 7 -2 -4 -7 -2
-12 3 -12 6 0 11 6 11 13 0 8 3 8 8 2 12 -18 36 -11 49 15 13 26 8 44 -6 21
-6 -8 -11 -9 -15 -3 -3 6 3 14 15 17 l21 7 -21 14 c-18 13 -19 18 -8 37 6 12
17 25 22 29 6 4 -1 8 -15 9 -23 0 -23 1 -5 9 l20 9 -20 1 c-11 1 -14 4 -7 7
13 5 17 35 5 46 -3 4 -13 1 -22 -6 -14 -11 -14 -10 -2 6 8 10 21 15 29 12 12
-4 13 -3 2 10 -7 8 -17 12 -23 8 -6 -4 -7 -1 -2 7 4 7 2 16 -6 21 -11 7 -11 9
3 9 10 0 15 7 13 17 -2 10 -4 24 -4 31 -1 7 -5 11 -9 8 -11 -7 -9 35 2 53 7
10 3 12 -15 7 -13 -3 -18 -3 -11 0 10 5 10 9 1 20 -6 8 -16 11 -22 7 -6 -4 -7
-1 -3 6 6 9 13 8 27 -5 11 -9 22 -14 26 -11 3 4 1 7 -5 7 -7 0 -12 7 -12 16 0
8 5 12 11 8 6 -3 4 4 -4 17 -8 13 -14 34 -12 47 1 15 -3 21 -11 18 -18 -7 -26
5 -13 21 8 9 8 13 1 13 -12 0 -9 29 7 57 5 11 6 25 1 33 -5 8 -6 18 -4 22 3 5
2 8 -3 7 -19 -3 -33 2 -33 12 0 5 5 7 10 4 15 -9 12 4 -4 20 -7 8 -17 11 -21
7 -5 -4 -5 -1 -1 6 6 10 11 10 22 1 10 -8 14 -8 14 0 0 6 -5 11 -11 11 -5 0
-7 4 -4 10 4 6 -1 7 -11 3 -14 -5 -15 -3 -6 12 7 14 6 25 -5 41 -8 13 -11 29
-7 35 5 8 3 9 -5 4 -9 -5 -12 1 -9 21 2 18 -2 28 -9 27 -6 -1 -14 4 -17 13 -3
8 -2 12 3 9 5 -3 13 0 17 6 4 8 3 9 -4 5 -7 -4 -12 -2 -12 4 0 6 -6 8 -12 4
-10 -6 -10 -4 0 7 16 18 15 34 -2 20 -11 -9 -12 -6 -8 14 3 16 0 25 -8 25 -9
0 -9 4 1 17 10 11 10 14 2 9 -8 -4 -13 -2 -13 8 0 8 3 16 8 19 4 2 2 2 -5 1
-7 -2 -15 1 -18 7 -4 5 -12 6 -18 3 -7 -4 -8 -3 -4 2 5 5 13 9 18 9 5 0 9 5 9
10 0 6 -5 10 -12 10 -6 0 -12 8 -14 18 -1 9 2 15 7 11 5 -3 6 -10 3 -16 -4 -7
-2 -8 4 -4 8 5 9 13 2 25 -5 10 -6 22 -2 27 4 5 -1 2 -10 -5 -16 -12 -16 -10
-8 18 7 25 5 33 -9 43 -38 27 -64 113 -39 130 9 6 8 8 -7 6 -11 -2 -20 2 -20
7 0 6 -4 16 -9 24 -6 10 -5 12 2 7 8 -5 10 -2 6 8 -3 9 -10 14 -14 11 -4 -3
-10 2 -14 10 -3 8 0 17 6 21 6 4 8 3 5 -3 -3 -5 0 -10 8 -10 20 0 8 15 -29 38
-17 10 -25 19 -18 19 18 0 15 29 -6 48 -9 10 -13 14 -8 10 21 -17 28 -7 8 11
-22 18 -31 37 -12 26 6 -3 7 1 4 10 -5 12 -9 13 -21 4 -11 -10 -13 -9 -11 2 2
8 8 17 13 21 6 4 1 8 -10 9 l-20 0 20 9 c20 8 20 9 -1 9 -29 1 -34 9 -24 37 7
19 6 24 -5 24 -8 0 -15 5 -15 11 0 5 -5 7 -12 3 -7 -4 -8 -3 -4 4 4 6 14 9 24
6 9 -2 7 1 -5 7 -13 7 -25 20 -28 30 -4 11 -10 19 -15 19 -5 0 -5 13 0 30 5
17 5 28 0 25 -5 -3 -12 0 -15 6 -4 5 -13 8 -21 5 -8 -3 -11 0 -8 9 3 8 13 11
22 8 11 -3 13 -2 6 4 -6 4 -10 15 -9 24 2 12 -3 15 -16 12 -13 -4 -19 0 -19
11 0 11 5 14 12 10 7 -4 8 -3 4 4 -4 6 -14 8 -23 5 -10 -4 -14 -2 -9 5 3 6 2
14 -4 17 -8 5 -7 12 2 23 10 12 10 14 1 8 -12 -7 -18 5 -14 27 1 5 -3 6 -9 2
-7 -4 -7 -12 0 -25 8 -15 7 -18 -3 -15 -17 7 -20 47 -4 57 8 5 6 8 -5 8 -10 0
-18 -5 -18 -12 0 -6 -3 -8 -6 -5 -4 4 -1 14 7 24 12 14 12 16 0 8 -11 -6 -13
-4 -7 11 4 10 4 15 0 12 -4 -4 -15 -3 -26 3 -16 9 -17 13 -6 27 7 9 9 13 3 10
-5 -3 -19 3 -30 14 -20 19 -20 19 0 13 20 -6 20 -6 0 6 -28 17 -36 32 -22 41
9 6 8 8 -3 9 -8 1 -18 1 -21 1 -4 -1 -5 7 -2 17 3 13 -1 20 -12 23 -12 2 -19
15 -22 37 -2 19 -7 37 -11 40 -5 4 -11 14 -15 24 -4 11 -12 15 -18 11 -8 -5
-9 -3 -5 5 5 7 15 10 23 7 8 -3 11 -1 8 4 -3 6 -16 10 -28 11 -21 0 -21 1 -2
9 14 6 16 9 5 10 -8 2 -19 2 -23 1 -4 -1 -4 7 2 17 7 13 4 23 -15 41 -24 23
-31 41 -16 41 5 0 9 7 9 14 0 8 -3 15 -6 14 -3 0 -13 0 -21 1 -11 1 -12 3 -2
9 9 6 7 13 -8 30 -11 11 -20 33 -20 47 0 15 -7 33 -16 42 -8 9 -13 22 -10 29
3 8 1 14 -5 14 -6 0 -7 5 -4 10 3 6 0 10 -8 10 -8 0 -18 7 -21 16 -3 8 -2 12
4 9 6 -3 7 1 4 9 -3 9 -11 13 -16 10 -6 -4 -8 1 -4 14 4 11 1 26 -6 33 -8 8
-13 21 -13 29 0 8 -2 31 -6 51 -5 33 -3 38 23 53 15 10 28 21 28 27 0 5 8 9
18 9 13 0 14 2 4 9 -11 7 -11 9 1 14 9 3 14 14 13 24 -2 10 2 21 8 25 8 5 7 8
-1 8 -7 0 -13 7 -13 15 0 26 -23 65 -34 58 -6 -4 -4 2 4 12 9 11 10 16 3 11
-9 -5 -13 1 -13 21 0 22 -2 25 -10 13 -8 -12 -10 -10 -10 10 0 20 -2 22 -10
10 -5 -8 -10 -10 -10 -5 0 6 6 17 13 24 10 11 10 13 0 7 -8 -4 -13 -1 -13 8 0
9 -7 16 -15 16 -8 0 -15 5 -15 11 0 5 5 7 12 3 7 -4 8 -3 4 5 -4 6 -12 9 -17
6 -8 -6 -13 8 -10 28 0 4 -5 7 -13 7 -9 0 -12 7 -9 23 4 18 3 19 -6 7 -9 -13
-11 -12 -11 4 0 11 -5 16 -14 13 -9 -4 -12 2 -10 19 1 13 -1 22 -6 19 -4 -3
-11 2 -14 11 -3 8 -10 12 -16 9 -6 -3 -7 1 -4 9 3 9 1 16 -5 16 -6 0 -11 7
-11 16 0 8 -5 12 -10 9 -6 -3 -10 3 -10 14 0 12 -7 21 -15 21 -9 0 -12 6 -8
15 3 9 2 15 -3 14 -18 -3 -34 1 -33 9 4 21 -3 32 -18 32 -10 0 -28 16 -41 36
-15 23 -28 34 -38 30 -9 -3 -12 -1 -9 4 3 6 0 10 -7 10 -9 0 -9 3 2 10 13 8
12 10 -2 10 -10 0 -32 15 -49 33 -17 17 -33 31 -35 30 -12 -8 -24 -1 -18 9 4
6 3 8 -3 5 -11 -7 -44 28 -35 38 4 3 -1 3 -10 0 -9 -4 -19 -1 -24 6 -5 8 -3
10 7 5 8 -4 5 0 -5 8 -11 9 -16 16 -11 16 5 0 1 6 -9 13 -16 11 -16 15 -3 25
8 7 19 12 23 11 21 -3 24 2 13 22 -8 15 -8 19 0 15 6 -4 12 -1 12 6 1 7 2 20
3 28 1 8 -3 21 -8 28 -7 9 -4 11 9 5 14 -5 17 -3 13 9 -4 9 -1 21 5 27 9 9 8
14 -3 21 -13 8 -12 10 3 10 10 0 15 5 12 10 -4 6 -10 8 -14 6 -4 -3 -8 1 -8 8
0 8 5 12 11 10 6 -2 11 7 11 21 0 14 -4 25 -10 25 -5 0 -2 5 7 11 10 5 15 16
11 25 -4 12 -8 12 -21 2 -13 -12 -14 -11 -2 9 8 12 17 20 20 18 11 -7 9 39 -3
54 -9 12 -9 13 1 7 7 -4 12 -2 12 4 0 6 5 8 12 4 7 -4 8 -3 4 5 -5 7 -17 9
-29 5 -21 -6 -21 -5 1 11 15 11 20 21 14 28 -10 15 -10 27 2 46 6 10 5 12 -2
7 -7 -4 -12 -2 -12 4 0 6 -4 9 -8 6 -5 -3 -9 1 -9 8 0 9 7 12 16 8 12 -4 11 0
-4 18 -11 13 -14 20 -7 16 6 -4 12 -2 12 3 0 6 -5 11 -11 11 -5 0 -7 5 -4 10
3 6 2 10 -4 10 -6 0 -8 7 -4 15 3 9 -3 23 -13 31 -11 9 -14 13 -7 10 7 -4 9 1
6 13 -3 11 -12 22 -20 25 -8 3 -11 10 -8 16 3 5 0 10 -7 10 -7 0 -19 9 -26 21
-8 13 -19 18 -29 15 -13 -5 -14 -4 -3 9 10 13 9 15 -9 15 -12 0 -19 5 -16 10
3 6 -4 10 -15 10 -17 0 -21 4 -16 17 4 10 4 14 0 10 -4 -3 -15 3 -25 14 -10
12 -23 18 -30 13 -7 -4 -9 -3 -5 4 3 6 -3 13 -14 17 -11 4 -18 11 -14 16 3 5
2 8 -3 7 -12 -3 -56 23 -70 41 -11 15 -15 17 -49 20 -8 0 -12 6 -9 11 6 9 -8
14 -27 11 -5 0 -8 4 -8 10 0 6 -9 9 -20 6 -10 -3 -19 -2 -18 2 3 24 -4 32 -23
26 -15 -5 -19 -4 -15 4 4 6 0 14 -8 17 -9 3 -16 12 -16 20 0 8 -4 14 -10 14
-5 0 -8 -6 -6 -12 1 -7 1 -10 -1 -5 -3 4 -10 4 -15 1 -7 -5 -8 -2 -3 6 5 8 -3
21 -21 36 -26 20 -27 22 -6 17 13 -3 22 -1 22 6 0 7 -4 10 -9 6 -5 -3 -12 -1
-15 4 -3 5 1 12 10 15 9 3 14 12 11 20 -3 7 0 19 6 26 9 10 9 11 0 6 -9 -5
-11 -2 -7 8 3 9 10 14 14 11 13 -8 19 32 6 46 -8 9 -8 10 2 5 19 -11 35 3 22
19 -8 10 -8 15 1 21 8 5 9 3 4 -6 -5 -9 -4 -11 4 -6 9 6 9 11 0 22 -9 11 -9
14 0 14 7 0 9 5 6 10 -3 6 -1 10 4 10 6 0 11 5 11 11 0 5 -4 8 -9 4 -5 -3 -13
0 -17 6 -4 7 -3 9 2 6 6 -3 16 -2 24 4 11 6 11 9 2 9 -8 0 -6 8 8 22 19 20 19
23 3 40 -16 18 -16 18 3 12 17 -7 17 -6 5 9 -8 11 -9 17 -3 17 7 0 9 7 5 17
-5 12 -3 14 8 8 11 -7 11 -5 -1 10 -8 10 -10 16 -3 12 6 -4 15 -2 19 4 4 7 3
9 -3 6 -6 -4 -16 0 -23 8 -10 12 -8 13 11 10 17 -3 20 -2 11 7 -8 8 -8 17 -1
31 6 11 7 17 2 14 -5 -4 -10 0 -10 8 0 8 4 12 9 9 4 -3 8 2 8 11 0 10 -5 14
-12 9 -10 -5 -10 -4 -1 6 6 7 9 19 6 28 -5 11 -3 13 8 7 12 -7 12 -6 1 7 -9
12 -10 18 -2 23 8 5 7 11 -2 22 -7 9 -12 18 -10 19 2 2 7 18 12 35 8 26 7 29
-5 19 -15 -12 -22 0 -8 14 10 10 13 37 3 31 -10 -6 -8 15 3 33 6 8 2 12 -10
13 -11 0 -13 2 -5 6 10 4 9 10 -5 26 -10 11 -13 17 -7 14 15 -9 25 41 11 50
-6 4 -7 1 -2 -7 5 -9 4 -11 -4 -6 -9 6 -9 11 0 22 9 11 8 14 -2 14 -11 0 -11
2 1 10 11 7 11 10 2 10 -7 0 -10 5 -7 10 3 6 2 10 -4 10 -6 0 -8 6 -5 14 3 8
-1 28 -10 44 -8 16 -13 32 -10 34 2 3 7 16 9 28 5 25 15 40 15 22 0 -7 7 -12
15 -12 8 0 15 4 15 10 0 5 7 7 15 4 8 -4 17 1 21 9 3 9 14 14 25 12 11 -2 19
2 19 9 0 23 25 37 39 23 10 -9 12 -9 9 3 -2 8 2 14 9 15 6 0 15 4 20 9 4 5 3
6 -4 2 -6 -3 -15 -1 -19 6 -4 7 -4 10 1 6 4 -4 17 -2 29 4 11 7 24 11 29 10 6
-2 11 13 8 30 0 4 6 5 14 2 14 -6 20 7 16 30 -1 5 6 3 15 -5 16 -12 17 -12 12
3 -9 21 2 31 19 17 10 -9 13 -7 13 10 0 12 5 19 10 16 6 -3 10 1 10 10 0 11 5
15 16 11 8 -3 13 -2 10 3 -3 5 1 11 9 15 8 3 15 12 15 20 0 8 11 23 25 34 14
11 25 25 25 30 0 6 10 18 23 28 16 12 17 15 4 10 -11 -3 -16 -2 -12 4 3 6 13
10 22 10 13 0 14 2 2 17 -9 10 -9 14 -2 10 14 -9 36 26 25 39 -4 5 -3 6 2 2
12 -10 39 29 30 44 -4 7 -3 8 4 4 7 -4 12 -3 12 3 0 5 7 17 16 25 9 9 11 16 4
16 -6 0 -8 5 -5 10 4 6 10 8 15 5 11 -7 23 32 14 46 -4 8 -3 9 4 5 7 -4 12 -2
12 4 0 6 5 8 13 4 7 -5 6 0 -3 11 -9 11 -10 16 -2 11 7 -4 12 -2 12 4 0 6 5 8
11 4 7 -4 7 1 -1 16 -7 12 -8 20 -2 16 14 -8 43 40 36 59 -4 9 -3 15 2 13 5
-2 10 1 11 5 1 5 10 15 20 24 10 8 12 11 4 8 -18 -10 16 42 38 56 14 9 13 10
-3 4 -19 -6 -19 -5 -3 13 10 11 16 25 14 33 -2 8 -2 11 0 7 8 -14 25 -8 20 7
-4 8 -1 17 5 21 7 5 8 2 3 -6 -5 -9 -4 -11 4 -6 9 6 9 11 -1 24 -10 12 -10 14
0 8 6 -4 12 -2 12 3 0 6 8 11 18 12 15 0 14 1 -3 8 -19 8 -19 8 0 19 11 6 16
12 11 12 -6 0 -1 7 10 16 10 8 12 12 4 8 -8 -4 -5 4 8 18 22 25 30 44 13 33
-5 -3 -13 0 -17 6 -4 8 -3 9 5 5 6 -4 14 0 17 8 3 9 11 13 17 9 5 -3 7 -1 4 4
-8 13 17 35 29 25 4 -4 3 1 -5 10 -11 14 -9 19 7 29 19 12 19 14 4 27 -9 7
-12 11 -5 8 6 -4 14 -2 18 4 3 5 0 10 -7 11 -7 0 -3 4 9 9 16 7 21 16 19 39
-2 26 0 28 13 18 10 -8 13 -8 8 -1 -4 7 -1 17 7 23 14 12 15 48 2 71 -7 12 -6
13 5 3 17 -17 26 -16 26 2 0 8 -5 12 -11 9 -6 -3 -4 0 4 8 9 7 14 21 12 32 -2
11 0 16 6 12 6 -3 14 -1 18 5 4 7 3 9 -4 5 -6 -3 -13 -2 -16 3 -3 5 1 12 10
15 8 3 12 10 9 16 -3 5 0 10 7 10 9 0 9 3 -2 10 -14 9 -7 14 13 11 5 -1 6 3 2
9 -3 5 -1 10 6 10 7 0 4 7 -7 15 -10 9 -13 14 -5 13 7 -2 16 3 19 11 3 9 0 11
-8 6 -8 -5 -7 1 3 15 12 18 14 27 5 37 -9 11 -7 12 7 7 13 -5 16 -4 11 4 -4 7
-3 12 3 12 6 0 7 7 4 17 -4 9 -2 14 3 10 6 -3 11 10 12 30 2 20 6 41 9 47 10
16 11 96 1 90 -4 -3 -8 -1 -8 3 0 5 -9 9 -20 10 -11 1 -20 -4 -20 -10 0 -9 -2
-9 -8 -1 -9 14 -64 13 -74 -1 -5 -7 -8 -6 -8 1 0 14 -110 14 -110 0 0 -8 -2
-8 -8 0 -4 6 -29 11 -57 11 -27 0 -53 -5 -57 -11 -6 -8 -8 -8 -8 0 0 14 -110
14 -110 0 0 -8 -2 -8 -8 0 -4 6 -29 11 -57 11 -27 0 -53 -5 -57 -11 -6 -8 -8
-8 -8 0 0 14 -110 14 -110 0 0 -8 -3 -8 -8 0 -10 14 -112 14 -112 0 0 -8 -2
-8 -8 0 -4 6 -29 11 -57 11 -27 0 -53 -5 -57 -11 -6 -8 -8 -8 -8 0 0 14 -110
14 -110 0 0 -8 -2 -8 -8 0 -4 6 -29 11 -57 11 -27 0 -53 -5 -57 -11 -6 -8 -8
-8 -8 0 0 6 -22 11 -55 11 -33 0 -52 -4 -48 -10 4 -6 1 -7 -8 -1 -20 13 -120
14 -112 1 4 -6 1 -7 -8 -1 -20 13 -120 14 -112 1 4 -6 1 -7 -8 -1 -20 13 -120
14 -112 1 4 -6 1 -7 -8 -1 -21 13 -119 14 -119 0 0 -8 -2 -8 -8 0 -4 6 -29 11
-57 11 -27 0 -53 -5 -57 -11 -6 -8 -8 -8 -8 0 0 6 -22 11 -55 11 -33 0 -52 -4
-48 -10 4 -6 1 -7 -8 -1 -21 13 -119 14 -119 0 0 -8 -2 -8 -8 0 -4 6 -29 11
-57 11 -27 0 -53 -5 -57 -11 -6 -8 -8 -8 -8 0 0 14 -110 14 -110 0 0 -8 -2 -8
-8 0 -10 15 -314 15 -324 0 -6 -8 -8 -8 -8 0 0 15 -579 16 -599 0 -11 -8 -13
-8 -8 0 9 16 -133 15 -152 0 -11 -8 -13 -8 -8 0 4 8 -22 11 -88 11 -66 0 -92
-3 -88 -11 5 -8 3 -8 -8 0 -18 15 -161 16 -152 1 4 -6 1 -7 -8 -1 -21 13 -81
15 -73 2 5 -7 2 -8 -7 -2 -20 13 -120 14 -112 1 4 -6 1 -7 -8 -1 -20 13 -120
14 -112 1 4 -6 1 -7 -8 -1 -20 13 -120 14 -112 1 4 -6 1 -7 -8 -1 -20 13 -120
14 -112 1 4 -6 1 -7 -8 -1 -20 13 -120 14 -112 1 4 -6 1 -7 -8 -1 -21 14 -120
14 -112 0 5 -8 3 -8 -8 0 -17 13 -138 13 -158 0 -9 -6 -12 -5 -8 1 9 14 -96
12 -105 -1 -5 -8 -8 -8 -8 0 0 6 -18 11 -40 11 -25 0 -37 -4 -33 -11 3 -6 0
-6 -7 1 -11 10 -16 9 -25 -4 -7 -9 -20 -18 -29 -19 -32 -5 -47 -14 -41 -24 9
-14 -9 -12 -24 3 -10 10 -11 8 -5 -7 5 -14 4 -17 -5 -12 -18 12 -61 -21 -55
-42 4 -10 2 -13 -3 -7 -13 16 -31 16 -37 -1 -4 -10 -2 -13 6 -8 6 4 8 3 4 -4
-3 -6 -19 -9 -34 -6 -17 3 -22 1 -14 -4 10 -7 10 -11 -2 -21 -8 -7 -21 -9 -27
-5 -8 4 -9 3 -5 -4 4 -7 1 -12 -8 -12 -8 0 -18 -5 -22 -12 -5 -7 -2 -8 7 -3
10 5 11 5 4 -3 -5 -5 -19 -12 -30 -14 -11 -2 -19 -11 -19 -21 1 -13 -2 -14
-17 -7 -15 8 -17 7 -14 -8 2 -11 -3 -19 -10 -19 -8 0 -12 5 -9 11 3 6 -1 2
-10 -8 -8 -10 -12 -24 -9 -30 4 -6 -1 -5 -10 3 -12 9 -17 10 -17 2 0 -7 -5 -9
-12 -5 -9 5 -8 2 1 -9 12 -15 12 -17 -2 -12 -8 4 -18 1 -22 -5 -6 -9 -10 -9
-17 1 -6 10 -7 7 -3 -10 5 -16 4 -21 -4 -17 -6 4 -11 2 -11 -4 0 -7 -7 -9 -17
-6 -10 4 -14 4 -10 0 4 -4 -5 -18 -19 -31 -15 -14 -22 -28 -18 -36 6 -9 5 -9
-8 0 -18 15 -29 7 -21 -15 5 -11 3 -13 -7 -7 -10 6 -12 4 -7 -8 3 -9 3 -16 -1
-16 -21 3 -32 -3 -32 -17 0 -8 -4 -13 -8 -10 -4 2 -14 -5 -22 -17 -12 -21 -12
-21 6 -7 19 14 19 14 0 -7 -10 -13 -23 -20 -27 -17 -8 5 -13 -9 -10 -28 0 -4
-8 -12 -19 -18 -21 -11 -29 -35 -7 -25 6 4 -10 -14 -38 -40 -27 -25 -49 -52
-47 -60 2 -9 -5 -15 -15 -15 -15 0 -16 -2 -3 -10 13 -8 13 -10 -1 -10 -9 0
-23 -8 -30 -17 -13 -16 -12 -17 4 -4 15 12 17 12 11 -3 -3 -9 -13 -16 -21 -16
-8 0 -11 -4 -8 -10 6 -9 -7 -14 -27 -11 -4 0 -5 -6 -2 -14 4 -8 1 -15 -6 -15
-9 0 -9 -4 1 -17 13 -15 12 -15 -8 -5 -19 11 -21 10 -18 -8 2 -11 0 -18 -6
-15 -5 4 -9 1 -9 -5 0 -6 -5 -8 -12 -4 -9 5 -8 2 1 -9 12 -16 12 -17 -5 -11
-10 4 -16 4 -13 0 4 -4 -4 -19 -17 -33 -13 -14 -21 -29 -19 -34 3 -4 0 -11 -6
-15 -8 -4 -9 -3 -5 4 4 7 2 12 -3 12 -6 0 -11 -9 -11 -20 0 -11 -7 -23 -15
-26 -8 -4 -12 -10 -9 -15 3 -5 -2 -9 -11 -9 -9 0 -13 -4 -10 -10 3 -5 1 -10
-4 -10 -6 0 -11 -7 -11 -15 0 -8 -7 -15 -15 -15 -8 0 -17 -11 -21 -25 -4 -14
-9 -24 -12 -21 -9 10 -34 -33 -26 -46 4 -7 3 -8 -5 -4 -6 4 -14 0 -17 -8 -3
-9 -11 -13 -18 -9 -6 4 -5 -1 3 -10 8 -10 11 -20 7 -24 -3 -3 -6 -1 -6 5 0 7
-5 12 -11 12 -5 0 -8 -4 -5 -9 3 -5 -1 -12 -10 -15 -9 -3 -14 -13 -11 -21 4
-8 -2 -16 -14 -20 -10 -4 -17 -11 -14 -16 4 -5 -1 -12 -10 -15 -12 -5 -13 -9
-4 -20 10 -12 8 -13 -6 -8 -14 6 -16 4 -10 -6 6 -10 4 -12 -8 -7 -11 4 -15 1
-12 -13 2 -11 -1 -19 -8 -17 -7 1 -11 -6 -9 -17 2 -11 -1 -15 -7 -11 -10 5
-15 -7 -12 -27 0 -4 -12 -17 -27 -28 -15 -12 -28 -26 -28 -31 -1 -5 -3 -11 -4
-14 -1 -3 -3 -10 -4 -15 0 -6 -6 -14 -13 -18 -6 -4 -13 -14 -15 -22 -5 -23
-22 -38 -37 -32 -9 3 -12 1 -7 -6 4 -7 2 -12 -4 -12 -6 0 -8 -4 -5 -10 4 -6
-1 -7 -11 -3 -12 4 -15 3 -10 -5 4 -6 0 -24 -9 -39 -9 -16 -14 -20 -11 -10 3
11 2 15 -4 12 -6 -3 -10 -13 -10 -20 0 -8 -9 -19 -20 -25 -11 -6 -18 -15 -15
-21 4 -5 1 -9 -6 -9 -8 0 -8 -4 1 -15 11 -13 10 -14 -4 -9 -9 3 -16 1 -16 -6
0 -6 -4 -9 -9 -5 -5 3 -11 -3 -13 -12 -3 -15 -5 -14 -10 5 -3 12 -3 20 1 18 4
-3 13 0 21 5 12 7 11 8 -5 6 -11 -1 -26 -6 -32 -10 -24 -15 -35 4 -18 30 10
14 12 22 5 18 -8 -5 -11 -3 -8 6 3 8 11 14 18 14 7 0 14 8 16 17 1 10 -3 15
-11 12 -7 -3 -16 -1 -20 5 -5 10 15 16 38 12 5 -1 6 3 3 8 -4 5 -2 12 3 16 6
3 8 12 5 19 -3 9 1 13 11 13 12 -2 18 7 21 31 2 17 -1 32 -6 32 -6 0 -9 6 -7
13 1 6 -5 11 -13 9 -10 -1 -9 2 4 13 17 13 16 19 -4 17 -3 0 -7 9 -7 21 -1 12
-7 23 -13 25 -5 2 -10 8 -10 14 0 15 -27 38 -36 30 -5 -4 -2 2 6 12 10 13 10
17 3 12 -8 -4 -13 -1 -13 9 0 17 -24 47 -32 40 -6 -6 -2 40 4 51 12 19 -1 81
-28 139 -15 33 -32 62 -36 63 -5 2 -6 8 -2 13 3 5 -2 9 -11 9 -9 0 -14 4 -10
9 3 5 -2 16 -10 24 -8 9 -15 20 -15 26 0 6 -4 11 -9 11 -5 0 -14 14 -21 30 -7
17 -16 30 -21 30 -5 0 -9 4 -9 10 0 10 -21 38 -57 75 -12 13 -19 26 -15 31 4
4 0 5 -9 1 -11 -4 -16 0 -15 11 0 9 -5 16 -12 14 -8 -1 -11 2 -6 9 4 7 0 17
-8 23 -8 6 -20 21 -27 34 -8 15 -18 21 -27 18 -9 -3 -12 -1 -9 4 4 6 -1 17 -9
26 -9 8 -16 13 -16 9 0 -3 -6 0 -14 7 -8 7 -13 15 -11 18 2 3 -12 16 -31 30
-18 14 -34 31 -34 38 0 7 -4 10 -10 7 -5 -3 -10 1 -10 9 0 10 -6 13 -17 9 -9
-4 -14 -2 -11 3 3 5 0 15 -8 22 -8 7 -14 9 -14 5 0 -4 -5 0 -11 10 -6 9 -15
15 -20 11 -6 -3 -17 2 -25 12 -9 11 -12 13 -9 6 6 -11 3 -11 -13 -1 -12 7 -19
16 -17 19 2 4 -2 7 -10 8 -8 1 -22 3 -30 4 -8 1 -15 5 -15 10 0 4 -9 8 -21 8
-13 0 -18 4 -13 12 5 8 2 9 -9 5 -10 -4 -17 -1 -17 5 0 6 -3 8 -7 5 -3 -4 -12
1 -20 11 -8 9 -11 11 -8 3 5 -8 -3 -6 -21 5 -27 18 -28 18 -21 1 4 -11 3 -16
-4 -12 -5 4 -16 1 -24 -5 -8 -7 -15 -9 -15 -4 0 5 -5 1 -11 -9 -6 -9 -14 -15
-20 -12 -8 6 -13 -8 -10 -27 0 -5 -2 -7 -7 -7 -17 3 -32 -1 -29 -8 1 -5 -1 -9
-5 -10 -14 -5 -48 -43 -48 -53 0 -5 -7 -7 -15 -4 -9 4 -15 0 -15 -10 0 -9 -4
-16 -10 -16 -5 0 -10 -7 -10 -16 0 -10 -6 -14 -14 -11 -11 4 -13 1 -9 -10 5
-12 3 -14 -7 -8 -10 6 -12 4 -7 -9 4 -10 3 -15 -3 -11 -5 3 -14 -4 -20 -15 -6
-11 -16 -17 -22 -14 -7 4 -8 3 -4 -5 4 -6 0 -14 -8 -17 -9 -3 -13 -10 -10 -15
3 -5 -6 -14 -20 -21 -14 -6 -26 -15 -26 -20 0 -5 6 -6 13 -3 6 4 4 0 -5 -8
-10 -8 -15 -17 -11 -21 4 -4 -1 -4 -12 0 -11 4 -17 4 -13 -1 10 -10 -10 -45
-25 -45 -7 0 -14 -10 -14 -22 -1 -13 -9 -28 -17 -34 -9 -6 -13 -14 -9 -17 3
-4 -2 -9 -11 -13 -9 -3 -14 -10 -11 -14 3 -5 1 -11 -5 -15 -6 -4 -8 -11 -5
-16 4 -5 2 -9 -4 -9 -9 0 -27 -40 -22 -49 2 -2 -2 -7 -8 -10 -6 -4 -12 -16
-14 -26 -2 -11 -9 -33 -16 -50 -6 -16 -14 -36 -16 -43 -3 -8 -14 -16 -25 -19
-11 -3 -20 -9 -20 -12 0 -4 -7 -8 -15 -8 -8 0 -12 4 -9 9 3 5 -6 7 -20 4 -14
-3 -28 0 -32 5 -3 5 -15 7 -26 3 -14 -4 -18 -2 -14 5 4 6 3 11 -3 11 -5 0 -12
-6 -14 -12 -3 -7 -6 -4 -6 6 -1 20 -1 20 -17 0 -8 -10 -13 -13 -9 -6 8 15 -7
16 -23 0 -16 -16 -16 4 1 21 10 11 8 11 -13 1 -14 -7 -22 -9 -18 -5 4 5 3 14
-3 22 -9 10 -15 11 -28 1 -13 -10 -14 -10 -4 2 19 21 16 33 -7 27 -11 -3 -18
-1 -15 3 7 11 -5 40 -17 40 -5 0 -6 -5 -2 -12 4 -7 3 -8 -4 -4 -6 4 -9 13 -5
22 3 9 0 14 -8 12 -8 -2 -13 3 -11 10 1 6 -7 12 -18 12 -11 0 -19 3 -19 8 3
16 -1 32 -8 31 -22 -4 -33 3 -33 19 0 14 -2 15 -10 2 -8 -12 -10 -10 -10 8 0
14 -4 21 -11 17 -6 -4 -9 0 -7 11 2 14 -4 20 -21 22 -19 3 -21 6 -10 13 10 6
8 9 -10 9 -21 0 -22 2 -10 16 12 15 11 16 -9 10 -12 -4 -22 -4 -21 1 4 23 -4
31 -31 29 -25 -2 -27 0 -17 13 9 11 9 13 0 8 -6 -4 -18 -1 -26 7 -9 10 -18 11
-26 5 -6 -5 -9 -6 -6 -3 5 8 -33 44 -47 44 -4 0 -7 3 -7 8 3 19 -2 33 -10 28
-5 -3 -11 1 -14 9 -4 10 -1 12 11 9 9 -3 6 2 -8 10 -16 10 -19 15 -10 16 13 0
13 1 0 10 -13 9 -13 10 0 10 12 0 12 2 2 8 -7 5 -10 16 -6 25 3 10 1 17 -6 17
-6 0 -9 -4 -5 -9 3 -5 1 -12 -4 -15 -10 -7 -9 20 2 30 4 4 2 13 -4 21 -9 10
-8 13 2 13 8 0 6 6 -7 16 -10 8 -12 12 -4 8 13 -7 13 -5 2 9 -8 9 -10 22 -6
28 5 9 2 10 -11 5 -15 -5 -16 -4 -6 8 10 11 9 16 -5 24 -11 6 -15 16 -10 27 5
15 4 16 -8 6 -13 -11 -15 -9 -11 8 2 11 -1 24 -7 27 -7 5 -8 2 -3 -7 7 -12 6
-12 -6 0 -11 10 -11 15 -1 18 6 3 12 9 12 14 0 5 -6 8 -12 7 -8 -2 -12 5 -10
15 2 10 -5 26 -15 35 -11 9 -13 13 -7 9 9 -6 11 -2 7 12 -3 12 -9 19 -13 16
-4 -3 -10 2 -13 10 -4 10 -1 12 11 8 9 -3 2 4 -16 16 -17 11 -32 24 -31 28 5
29 -2 53 -13 47 -8 -5 -7 0 2 11 10 13 11 16 2 11 -9 -5 -13 -3 -11 5 3 26 -1
40 -10 35 -5 -3 -11 3 -14 13 -3 15 -1 18 12 15 9 -3 5 1 -9 9 -14 9 -27 14
-31 12 -3 -2 -6 3 -6 11 0 10 4 11 11 4 5 -5 14 -10 19 -10 5 0 2 7 -7 15 -12
13 -71 15 -400 15 -379 0 -386 0 -386 -20 0 -11 16 -36 35 -57 l34 -36 -5 29
c-3 16 -3 26 1 23 11 -11 14 -49 4 -54 -5 -4 -7 -10 -4 -15 3 -5 0 -20 -7 -32
-7 -13 -11 -27 -10 -31 1 -5 -1 -6 -6 -3 -4 2 -23 -9 -41 -25 -40 -34 -50 -36
-81 -9 -13 11 -20 20 -16 20 5 0 -11 16 -35 35 -23 20 -48 34 -56 31 -8 -3
-11 -1 -8 4 7 11 -18 40 -34 40 -6 0 -11 7 -11 16 0 12 -7 15 -25 12 -13 -3
-22 -1 -19 3 3 5 -2 9 -11 9 -9 0 -24 13 -33 30 l-17 30 -124 0 c-115 0 -122
-1 -110 -17 8 -10 9 -14 2 -10 -6 4 -15 3 -18 -3 -4 -6 -3 -10 2 -9 4 1 14 1
22 0 11 -1 11 -4 0 -18 -10 -11 -10 -14 -1 -9 7 4 12 2 12 -4 0 -7 9 -9 23 -6
12 3 16 3 10 0 -7 -3 -13 -12 -13 -20 0 -9 5 -12 12 -8 8 5 9 2 5 -9 -3 -9 -1
-19 5 -23 7 -4 8 -3 4 4 -4 7 -2 12 3 12 6 0 11 -9 11 -20 0 -11 5 -20 11 -20
5 0 7 -6 3 -12 -5 -8 -2 -8 10 1 9 8 16 10 15 5 -4 -23 3 -34 21 -34 13 0 20
-7 20 -19 0 -11 9 -26 21 -34 11 -8 22 -23 24 -33 1 -11 8 -18 14 -17 19 5 25
-46 7 -66 -9 -10 -13 -21 -9 -26 5 -4 -5 1 -22 11 -27 17 -28 18 -22 1 3 -9 2
-17 -2 -17 -5 0 -12 8 -15 17 -5 12 -9 14 -18 5 -16 -16 -30 -15 -54 4 -18 14
-18 15 5 4 13 -7 27 -8 32 -3 5 5 0 10 -11 11 -11 1 -27 2 -35 3 -8 1 -15 12
-16 23 0 21 -1 21 -9 1 -6 -14 -9 -16 -10 -5 -2 8 -2 19 -1 23 1 5 -3 6 -9 2
-5 -3 -10 -1 -10 4 0 6 -5 11 -12 11 -6 0 -3 -9 7 -20 10 -11 15 -23 12 -27
-4 -3 -7 -1 -7 6 0 7 -5 9 -12 5 -7 -4 -10 -4 -6 1 4 4 1 14 -7 21 -15 16 -29
19 -20 5 3 -5 1 -12 -4 -16 -6 -3 -8 5 -5 19 2 14 -1 28 -7 32 -7 4 -9 3 -6
-3 4 -6 1 -13 -7 -16 -11 -4 -14 2 -11 26 2 18 1 26 -2 20 -2 -7 -12 -13 -21
-14 -11 0 -12 -2 -4 -6 6 -2 12 -9 12 -15 0 -6 -6 -6 -15 2 -8 7 -12 16 -9 21
3 5 -7 14 -21 19 -16 6 -23 14 -19 22 4 7 3 8 -4 4 -7 -4 -12 -1 -12 6 0 9 -3
9 -10 -2 -8 -12 -10 -10 -10 8 0 13 -4 21 -9 18 -5 -3 -7 -16 -4 -29 3 -12 3
-20 0 -17 -3 3 -8 18 -11 33 -7 38 -14 46 -37 42 -17 -3 -19 -2 -9 10 10 12 7
13 -18 5 -27 -7 -30 -6 -27 11 2 10 7 25 11 32 4 6 -2 3 -13 -8 -11 -11 -18
-24 -15 -30 3 -5 -2 -4 -11 4 -9 7 -17 19 -17 25 0 6 5 4 10 -4 5 -8 10 -10
10 -5 0 6 -5 17 -10 25 -5 8 -10 10 -10 5 0 -6 -9 -11 -20 -11 -15 0 -19 5
-14 20 5 16 4 17 -9 5 -8 -8 -12 -18 -9 -24 3 -6 1 -6 -4 -2 -5 5 -9 14 -9 20
-1 7 -7 11 -15 9 -11 -3 -11 0 0 12 7 9 9 16 4 16 -4 0 1 7 12 15 16 13 16 14
2 9 -10 -3 -18 -1 -18 5 0 7 -41 11 -126 11 -111 0 -125 -2 -120 -16z m6051
-74 c-3 -5 -12 -10 -18 -10 -7 0 -6 4 3 10 19 12 23 12 15 0z m-3985 -14 c0
-3 -4 -8 -10 -11 -5 -3 -10 -1 -10 4 0 6 5 11 10 11 6 0 10 -2 10 -4z m-1623
-78 c-3 -8 -6 -5 -6 6 -1 11 2 17 5 13 3 -3 4 -12 1 -19z m407 -54 c3 -8 2
-12 -4 -9 -6 3 -10 10 -10 16 0 14 7 11 14 -7z m35 -31 c6 -12 7 -24 3 -27 -5
-3 -9 0 -9 7 0 7 -4 21 -8 32 -10 25 -2 18 14 -12z m41 -43 c0 -5 -2 -10 -4
-10 -3 0 -8 5 -11 10 -3 6 -1 10 4 10 6 0 11 -4 11 -10z m-310 -16 c0 -8 -19
-13 -24 -6 -3 5 1 9 9 9 8 0 15 -2 15 -3z m104 -42 c2 -4 0 -14 -6 -22 -8 -12
-9 -12 -5 2 3 9 1 19 -6 22 -9 3 -9 5 0 5 6 1 14 -3 17 -7z m-44 -16 c0 -2 -8
-10 -17 -17 -16 -13 -17 -12 -4 4 13 16 21 21 21 13z m137 -18 c-3 -8 -6 -5
-6 6 -1 11 2 17 5 13 3 -3 4 -12 1 -19z m-112 -7 c3 -5 2 -12 -3 -15 -5 -3 -9
1 -9 9 0 17 3 19 12 6z m-550 -21 c3 -6 -1 -7 -9 -4 -18 7 -21 14 -7 14 6 0
13 -4 16 -10z m10919 -121 c-3 -5 -11 -9 -17 -8 -8 0 -8 2 1 6 10 4 10 8 0 21
-12 15 -11 16 4 3 10 -7 15 -17 12 -22z m-64 -133 c0 -3 -4 -8 -10 -11 -5 -3
-10 -1 -10 4 0 6 5 11 10 11 6 0 10 -2 10 -4z m-5633 -31 c0 -8 -4 -12 -9 -9
-5 3 -6 10 -3 15 9 13 12 11 12 -6z m5608 -15 c-3 -5 -11 -10 -16 -10 -6 0 -7
5 -4 10 3 6 11 10 16 10 6 0 7 -4 4 -10z m-6472 -931 c-8 -8 -13 -7 -18 2 -5
8 -4 10 3 5 7 -4 12 -2 12 5 0 7 3 9 7 6 4 -4 2 -12 -4 -18z m-52 -42 c-10 -9
-11 -8 -5 6 3 10 9 15 12 12 3 -3 0 -11 -7 -18z m43 -153 c3 -8 2 -12 -4 -9
-6 3 -10 10 -10 16 0 14 7 11 14 -7z m5563 -19 c0 -8 -4 -12 -9 -9 -5 3 -6 10
-3 15 9 13 12 11 12 -6z m-7517 -81 c0 -8 -19 -13 -24 -6 -3 5 1 9 9 9 8 0 15
-2 15 -3z m560 -688 c0 -3 -4 -8 -10 -11 -5 -3 -10 -1 -10 4 0 6 5 11 10 11 6
0 10 -2 10 -4z m6990 -10 c0 -3 -4 -8 -10 -11 -5 -3 -10 -1 -10 4 0 6 5 11 10
11 6 0 10 -2 10 -4z m-3084 -738 c4 -6 3 -8 -4 -4 -6 3 -14 -3 -17 -15 -4 -11
-9 -18 -12 -16 -5 5 14 47 22 47 2 0 7 -5 11 -12z m-2077 -1551 c0 -9 -2 -8
-6 1 -2 6 -10 9 -15 6 -7 -4 -8 -2 -4 5 9 13 26 5 25 -12z m6151 -45 c0 -4
-10 -13 -22 -21 -23 -14 -23 -14 -4 8 20 22 26 25 26 13z m80 -416 c0 -3 -4
-8 -10 -11 -5 -3 -10 -1 -10 4 0 6 5 11 10 11 6 0 10 -2 10 -4z m-9597 -681
c-3 -9 -8 -14 -10 -11 -3 3 -2 9 2 15 9 16 15 13 8 -4z m9964 9 c-3 -3 -12 -4
-19 -1 -8 3 -5 6 6 6 11 1 17 -2 13 -5z m23 -58 c0 -2 -8 -10 -17 -17 -16 -13
-17 -12 -4 4 13 16 21 21 21 13z m-10393 -81 c0 -8 -4 -12 -9 -9 -5 3 -6 10
-3 15 9 13 12 11 12 -6z m8618 -164 c3 -5 2 -12 -3 -15 -5 -3 -9 1 -9 9 0 17
3 19 12 6z m2040 -380 c3 -5 2 -12 -3 -15 -5 -3 -9 1 -9 9 0 17 3 19 12 6z
m-8798 -46 c0 -8 -4 -12 -9 -9 -5 3 -6 10 -3 15 9 13 12 11 12 -6z m-1837
-105 c0 -5 -4 -10 -10 -10 -5 0 -10 5 -10 10 0 6 5 10 10 10 6 0 10 -4 10 -10z
m50 -20 c0 -6 10 -10 21 -10 19 0 20 -2 8 -16 -8 -10 -15 -12 -17 -5 -2 6 -9
8 -14 5 -7 -4 -8 -2 -4 4 3 6 -4 21 -16 33 l-23 21 23 -11 c12 -6 22 -16 22
-21z m50 -45 c0 -8 -4 -15 -8 -15 -5 0 -9 7 -9 15 0 8 4 15 9 15 4 0 8 -7 8
-15z m30 1 c0 -8 -4 -17 -8 -20 -4 -2 -8 4 -8 15 0 10 4 19 8 19 4 0 8 -6 8
-14z m10601 -179 c-10 -9 -11 -8 -5 6 3 10 9 15 12 12 3 -3 0 -11 -7 -18z
m-9430 -4 c13 -16 12 -17 -3 -4 -17 13 -22 21 -14 21 2 0 10 -8 17 -17z m9464
-13 c3 -5 1 -10 -4 -10 -6 0 -11 5 -11 10 0 6 2 10 4 10 3 0 8 -4 11 -10z m49
-161 c-3 -5 -11 -9 -17 -8 -9 0 -9 2 0 5 7 3 9 12 6 20 -3 7 -10 11 -16 7 -6
-4 -7 -1 -2 7 6 10 11 9 21 -5 7 -10 11 -22 8 -26z m-9934 -19 c0 -5 -5 -10
-11 -10 -5 0 -7 5 -4 10 3 6 8 10 11 10 2 0 4 -4 4 -10z m9955 -150 c3 -6 -1
-7 -9 -4 -18 7 -21 14 -7 14 6 0 13 -4 16 -10z m20 -150 c3 -5 1 -10 -4 -10
-6 0 -11 5 -11 10 0 6 2 10 4 10 3 0 8 -4 11 -10z m-525 -120 c0 -5 -7 -7 -15
-4 -8 4 -15 8 -15 10 0 2 7 4 15 4 8 0 15 -4 15 -10z m15 -60 c3 -5 1 -10 -4
-10 -6 0 -11 5 -11 10 0 6 2 10 4 10 3 0 8 -4 11 -10z m-8590 -9 c3 -5 2 -12
-3 -15 -5 -3 -9 1 -9 9 0 17 3 19 12 6z m9125 -117 c0 -8 -19 -13 -24 -6 -3 5
1 9 9 9 8 0 15 -2 15 -3z m-9113 -260 c-3 -3 -12 -4 -19 -1 -8 3 -5 6 6 6 11
1 17 -2 13 -5z m1787 -380 c5 -14 4 -15 -9 -4 -17 14 -19 20 -6 20 5 0 12 -7
15 -16z m2063 -174 c-2 -11 -7 -23 -11 -27 -4 -5 -6 -3 -4 4 2 6 -1 11 -7 11
-5 0 -9 -4 -8 -9 2 -4 -5 -5 -14 -2 -11 4 -13 8 -5 11 7 2 9 9 6 14 -4 7 -2 8
5 4 6 -4 14 0 17 8 8 21 24 10 21 -14z m-4837 -80 c0 -5 -2 -10 -4 -10 -3 0
-8 5 -11 10 -3 6 -1 10 4 10 6 0 11 -4 11 -10z m6502 -317 c-6 -2 -10 -9 -7
-14 4 -5 -1 -6 -10 -2 -13 5 -14 7 -3 14 7 5 18 8 23 8 6 0 4 -3 -3 -6z
m-5237 -63 c3 -5 -1 -10 -10 -10 -9 0 -13 5 -10 10 3 6 8 10 10 10 2 0 7 -4
10 -10z m1910 -68 c-3 -3 -11 0 -18 7 -9 10 -8 11 6 5 10 -3 15 -9 12 -12z
m65 -98 c0 -8 -19 -13 -24 -6 -3 5 1 9 9 9 8 0 15 -2 15 -3z m7090 -298 c0 -2
-8 -10 -17 -17 -16 -13 -17 -12 -4 4 13 16 21 21 21 13z m-5065 -418 c3 -3 -7
-5 -22 -4 -18 0 -27 -4 -25 -13 1 -7 -2 -10 -8 -6 -16 10 6 32 30 30 11 -1 22
-4 25 -7z m4940 -69 c-4 -5 -12 -9 -18 -8 -9 0 -8 2 1 6 6 2 9 10 6 15 -4 7
-2 8 5 4 6 -4 9 -12 6 -17z m-27 -34 c-3 -3 -9 2 -12 12 -6 14 -5 15 5 6 7 -7
10 -15 7 -18z"/>
<path d="M6500 12061 c0 -7 -5 -9 -12 -5 -7 5 -8 3 -3 -5 5 -9 10 -10 18 -2 6
6 8 14 4 18 -4 3 -7 1 -7 -6z"/>
<path d="M605 12021 c-3 -5 -2 -12 3 -15 5 -3 9 1 9 9 0 17 -3 19 -12 6z"/>
<path d="M2444 11891 c2 -14 9 -27 17 -29 11 -3 12 -2 1 6 -8 5 -13 12 -12 16
1 4 -1 12 -4 19 -2 6 -3 1 -2 -12z"/>
<path d="M589 11741 c6 -10 7 -22 3 -26 -4 -5 -1 -5 6 -1 9 5 9 12 2 27 -6 10
-13 19 -16 19 -2 0 0 -8 5 -19z"/>
<path d="M1225 11736 c-5 -6 -11 -20 -13 -31 -2 -15 2 -13 14 8 16 30 16 43
-1 23z"/>
<path d="M750 11506 c0 -2 6 -9 14 -15 11 -9 16 -9 22 0 4 8 3 9 -4 5 -7 -4
-12 -2 -12 3 0 6 -4 11 -10 11 -5 0 -10 -2 -10 -4z"/>
<path d="M5740 11425 c-7 -8 -9 -15 -6 -15 4 0 14 7 22 15 9 8 11 15 6 15 -5
0 -15 -7 -22 -15z"/>
<path d="M4790 10739 c0 -5 5 -7 10 -4 6 3 10 8 10 11 0 2 -4 4 -10 4 -5 0
-10 -5 -10 -11z"/>
<path d="M5120 10599 c0 -5 5 -7 10 -4 6 3 10 8 10 11 0 2 -4 4 -10 4 -5 0
-10 -5 -10 -11z"/>
<path d="M4826 10295 c-3 -8 -1 -15 4 -15 6 0 10 7 10 15 0 8 -2 15 -4 15 -2
0 -6 -7 -10 -15z"/>
<path d="M10845 7970 c-3 -5 -1 -10 4 -10 6 0 11 5 11 10 0 6 -2 10 -4 10 -3
0 -8 -4 -11 -10z"/>
<path d="M11100 7726 c0 -2 8 -10 18 -17 15 -13 16 -12 3 4 -13 16 -21 21 -21
13z"/>
<path d="M4593 6705 c0 -8 4 -12 9 -9 5 3 6 10 3 15 -9 13 -12 11 -12 -6z"/>
<path d="M11540 6596 c0 -2 8 -10 18 -17 15 -13 16 -12 3 4 -13 16 -21 21 -21
13z"/>
<path d="M2526 5905 c-3 -8 -1 -15 3 -15 5 0 11 7 15 15 3 8 1 15 -3 15 -5 0
-11 -7 -15 -15z"/>
<path d="M11925 5900 c-3 -5 -1 -10 4 -10 6 0 11 5 11 10 0 6 -2 10 -4 10 -3
0 -8 -4 -11 -10z"/>
<path d="M11976 5773 c-6 -14 -5 -15 5 -6 7 7 10 15 7 18 -3 3 -9 -2 -12 -12z"/>
<path d="M4860 5559 c0 -5 5 -7 10 -4 6 3 10 8 10 11 0 2 -4 4 -10 4 -5 0 -10
-5 -10 -11z"/>
<path d="M12125 5429 c-4 -6 -5 -12 -2 -15 2 -3 7 2 10 11 7 17 1 20 -8 4z"/>
<path d="M12130 5400 c-9 -6 -10 -10 -3 -10 6 0 15 5 18 10 8 12 4 12 -15 0z"/>
<path d="M12347 4704 c-8 -8 3 -34 15 -34 7 0 6 5 -1 13 -6 8 -8 17 -4 20 3 4
4 7 1 7 -2 0 -7 -3 -11 -6z"/>
<path d="M12345 4650 c-3 -6 1 -7 9 -4 18 7 21 14 7 14 -6 0 -13 -4 -16 -10z"/>
<path d="M2996 4532 c-3 -5 1 -9 9 -9 8 0 12 4 9 9 -3 4 -7 8 -9 8 -2 0 -6 -4
-9 -8z"/>
<path d="M12383 4475 c0 -8 4 -12 9 -9 5 3 6 10 3 15 -9 13 -12 11 -12 -6z"/>
<path d="M12413 4415 c0 -8 4 -12 9 -9 5 3 6 10 3 15 -9 13 -12 11 -12 -6z"/>
<path d="M1820 4240 c0 -5 5 -10 11 -10 5 0 7 5 4 10 -3 6 -8 10 -11 10 -2 0
-4 -4 -4 -10z"/>
<path d="M12417 4218 c-7 -20 -7 -28 0 -30 3 -2 8 7 9 20 4 24 -1 30 -9 10z"/>
<path d="M2113 3465 c0 -8 4 -12 9 -9 5 3 6 10 3 15 -9 13 -12 11 -12 -6z"/>
<path d="M12455 1761 c-3 -5 -2 -12 3 -15 5 -3 9 1 9 9 0 17 -3 19 -12 6z"/>
</g>
</svg>
